<?xml version="1.0" standalone="no"?><!DOCTYPE svg PUBLIC "-//W3C//DTD SVG 1.1//EN" "http://www.w3.org/Graphics/SVG/1.1/DTD/svg11.dtd"><svg t="1724804668308" class="icon" viewBox="0 0 1024 1024" version="1.1" xmlns="http://www.w3.org/2000/svg" p-id="2623" xmlns:xlink="http://www.w3.org/1999/xlink" width="500" height="500"><path d="M567.8269631999999 135.7748149333334c-92.23585173333332 0-177.1899264 24.272593066666666-177.1899264 24.272592s-143.20829653333334-67.96325973333333-216.0260736-53.399703466666665c-75.2450368 41.26340693333333-4.8545184 92.23585173333332 29.1271104 128.64474133333334-72.81777813333333 63.10874026666667-118.93570346666667 148.06281493333333-126.21748053333334 237.87140693333333-16.990814933333333 41.26340693333333-26.699851733333333 9.7090368-46.1179264 33.981629866666665-9.7090368 12.136296533333333-31.554370133333336 111.6539264-2.427259733333333 148.06281493333333 46.1179264 41.26340693333333 72.81777813333333-4.8545184 123.79022293333334 50.97244373333333 24.272593066666666 31.554370133333336 55.8269632 58.25422186666666 92.23585173333332 82.52681493333333 9.7090368 9.7090368-26.699851733333333 26.699851733333333-9.7090368 80.09955626666667 9.7090368 19.4180736 97.09037013333334 21.845333333333333 121.36296213333333 12.136295466666667 14.5635552-12.136296533333333 0-26.699851733333333 9.709037866666668-29.1271104 7.281778133333333 2.427259733333333 12.136296533333333 4.8545184 19.4180736 7.281777066666667 9.7090368 7.281778133333333-12.136296533333333 60.6814816 29.127111466666666 58.25422293333333 14.5635552 2.427259733333333 46.1179264 2.427259733333333 80.0995552 0 19.4180736-4.8545184 12.136296533333333-33.981629866666665 19.418074666666666-33.981629866666665 19.4180736 2.427259733333333 38.83614826666667 2.427259733333333 58.25422186666666 2.427259733333333 55.8269632 0 89.80859306666666-2.427259733333333 138.35377813333335-14.563556266666666 29.127111466666666-4.8545184-12.136296533333333 36.40888853333333 12.136295466666667 43.690666666666665 9.7090368-4.8545184 97.09037013333334 12.136296533333333 114.08118506666666-9.7090368 29.127111466666666-24.272593066666666 0-99.51762986666665 24.272593066666666-111.6539264 114.08118506666666-70.3905184 145.6355552-160.19911146666666 145.6355552-283.9893333333333C1012.0154069333333 303.25570346666666 829.9709631999999 135.7748149333334 567.8269631999999 135.7748149333334zM266.84681493333335 383.35525973333336c-19.4180736 0-36.40888853333333-16.990814933333333-36.40888853333333-36.408889599999995s16.990814933333333-36.40888853333333 36.40888853333333-36.40888853333333 36.40888853333333 16.990814933333333 36.40888853333333 36.40888853333333-16.990814933333333 36.40888853333333-36.40888853333333 36.408889599999995z m611.6693333333334 0c-7.281778133333333 9.7090368-16.990814933333333 14.5635552-29.127111466666666 14.5635552-7.281778133333333 0-14.5635552-2.427259733333333-21.845333333333333-7.281778133333333-46.1179264-33.981629866666665-101.94488853333334-58.25422186666666-165.05362986666665-70.3905184-19.4180736-2.427259733333333-38.83614826666667-4.8545184-60.681480533333335-7.281778133333333-19.4180736 0-36.40888853333333-16.990814933333333-33.981629866666665-38.8361472 0-19.4180736 16.990814933333333-36.40888853333333 38.83614826666667-33.981629866666665 24.272593066666666 0 46.1179264 4.8545184 67.96325866666666 7.281777066666667 72.81777813333333 12.136296533333333 140.7810368 41.26340693333333 196.608 84.95407466666667 16.990814933333333 12.136296533333333 19.4180736 36.40888853333333 7.281778133333333 50.9724448z" fill="" p-id="2624"></path></svg>