<?xml version="1.0" standalone="no"?><!DOCTYPE svg PUBLIC "-//W3C//DTD SVG 1.1//EN" "http://www.w3.org/Graphics/SVG/1.1/DTD/svg11.dtd"><svg t="1724742996955" class="icon" viewBox="0 0 1024 1024" version="1.1" xmlns="http://www.w3.org/2000/svg" p-id="4295" xmlns:xlink="http://www.w3.org/1999/xlink" width="900" height="900"><path d="M797.8 336.9c5.8-14.5 8.8-29.9 8.8-45.3 0-15.5-3-31-8.9-45.7-5.9-14.6-14.8-28.3-26.6-40.1s-25.5-20.7-40.1-26.6c-14.6-5.9-30.1-8.9-45.7-8.9-15.4 0-30.8 2.9-45.3 8.8-17-9.4-36.2-14.5-56.2-14.5-30.9 0-59.9 12-81.6 33.7L268.9 431.4c-37.6 37.6-43.8 95-18.5 139.1-5.7 14.4-8.6 29.7-8.6 44.9v0.5c0.1 23.6 9.8 46.1 26.4 62.7l31.7 31.7c16.7 16.7 39.2 26.3 62.7 26.4h0.5c15.5 0 31-3 45.7-8.9l-0.3-0.3c17.2 9.3 36.2 14 55.2 14 29.6 0 59.1-11.3 81.6-33.8l233.2-233.2c37.3-37.1 43.7-93.7 19.3-137.6z m-56 101L508.6 671.1c-24.7 24.7-65 24.7-89.7 0L305.7 557.8c-24.7-24.7-24.7-65 0-89.7L538.9 235c11.9-11.9 27.8-18.5 44.8-18.5 17 0 32.9 6.6 44.8 18.5l113.2 113.2c24.8 24.7 24.8 65 0.1 89.7zM255.2 684.7c-11.7-11.7-30.7-11.7-42.4 0s-11.7 30.7 0 42.4l37.4 37.4c5.9 5.9 13.5 8.8 21.2 8.8s15.4-2.9 21.2-8.8c11.7-11.7 11.7-30.7 0-42.4l-37.4-37.4z" p-id="4296"></path></svg>
