<?xml version="1.0" standalone="no"?><!DOCTYPE svg PUBLIC "-//W3C//DTD SVG 1.1//EN" "http://www.w3.org/Graphics/SVG/1.1/DTD/svg11.dtd"><svg t="1724755745946" class="icon" viewBox="0 0 1024 1024" version="1.1" xmlns="http://www.w3.org/2000/svg" p-id="5336" xmlns:xlink="http://www.w3.org/1999/xlink" width="500" height="500"><path d="M759.9104 943.8208H273.664c-107.264 0-194.2016-86.9376-194.2016-194.2016V263.3728c0-107.264 86.9376-194.2016 194.2016-194.2016h486.2464c107.264 0 194.2016 86.9376 194.2016 194.2016v486.2464c0 107.264-86.9376 194.2016-194.2016 194.2016z" fill="#FC5656" p-id="5337"></path><path d="M516.4032 287.6928c-79.3088 0-143.872 64.5632-143.872 143.872s64.512 143.872 143.872 143.872 143.872-64.5632 143.872-143.872-64.5632-143.872-143.872-143.872z m0 236.544c-51.0976 0-92.672-41.5744-92.672-92.672s41.5744-92.672 92.672-92.672 92.672 41.5744 92.672 92.672-41.6256 92.672-92.672 92.672z" fill="#F7F8F8" p-id="5338"></path><path d="M829.0816 703.6928l-92.928-166.2976c-0.3072-0.512-0.6656-0.9216-0.9728-1.3824a240.95232 240.95232 0 0 0 23.6544-104.3968c0-23.7568-3.4304-47.2576-10.1888-69.7856-4.0448-13.5168-18.3296-21.1968-31.8976-17.152a25.58976 25.58976 0 0 0-17.152 31.8976c5.3248 17.7664 8.0384 36.3008 8.0384 55.0912 0 105.472-85.8112 191.2832-191.2832 191.2832S325.12 537.0368 325.12 431.5648s85.8112-191.2832 191.2832-191.2832c45.1072 0 88.9344 16.0256 123.3408 45.056a25.63072 25.63072 0 0 0 36.096-3.0208 25.63072 25.63072 0 0 0-3.0208-36.096 242.54464 242.54464 0 0 0-156.3648-57.1392c-133.6832 0-242.4832 108.7488-242.4832 242.4832 0 39.168 9.3696 76.1856 25.9584 108.9536l-91.136 163.1744a25.4208 25.4208 0 0 0-0.8192 23.3472c3.4816 7.4752 10.3936 12.8 18.5344 14.2848l98.1504 18.176 68.3008 76.4928a25.51296 25.51296 0 0 0 21.9648 8.3968 25.64608 25.64608 0 0 0 19.5584-13.056l86.9888-157.184c0.0512-0.1024 0.0512-0.2048 0.1024-0.256 73.5232-1.536 139.1104-35.8912 182.5792-89.0368l62.9248 112.5888-71.68 13.2608c-5.5808 1.024-10.6496 3.8912-14.4384 8.1408l-50.1248 56.1152-29.5424-53.3504a25.58464 25.58464 0 0 0-34.816-9.984 25.58464 25.58464 0 0 0-9.984 34.816l47.0016 84.9408a25.64608 25.64608 0 0 0 22.4256 13.2096c7.2704 0 14.2336-3.072 19.0976-8.5504l68.3008-76.4928 98.1504-18.176a25.66144 25.66144 0 0 0 18.5344-14.2848c3.4304-7.5264 3.1232-16.2304-0.9216-23.3984zM407.04 775.0144l-50.1248-56.1152a25.8048 25.8048 0 0 0-14.4384-8.1408l-71.68-13.2608 60.928-109.0048c34.0992 40.0384 80.896 68.9152 134.144 80.2304L407.04 775.0144z" fill="#F7F8F8" p-id="5339"></path></svg>