<?xml version="1.0" standalone="no"?><!DOCTYPE svg PUBLIC "-//W3C//DTD SVG 1.1//EN" "http://www.w3.org/Graphics/SVG/1.1/DTD/svg11.dtd"><svg height="888" node-id="1" sillyvg="true" template-height="888" template-width="1667" version="1.1" viewBox="0 0 1667 888" width="1667" xmlns="http://www.w3.org/2000/svg" xmlns:xlink="http://www.w3.org/1999/xlink"><defs node-id="230"><filter height="1.091" id="filter-1" node-id="5" width="1.078" x="-0.039" y="-0.045"><feOffset color-interpolation-filters="linearRGB" dx="0" dy="2" in="SourceAlpha" result="shadowOffsetOuter1"></feOffset><feColorMatrix color-interpolation-filters="linearRGB" in="shadowOffsetOuter1" result="shadowMatrixOuter1" type="matrix" values="0 0 0 0 0 0 0 0 0 0 0 0 0 0 0 0 0 0 0.2 0"></feColorMatrix><feMerge color-interpolation-filters="linearRGB" result="result3"><feMergeNode in="shadowMatrixOuter1"></feMergeNode><feMergeNode in="SourceGraphic"></feMergeNode></feMerge></filter><filter height="1.062" id="filter-3" node-id="12" width="1.056" x="-0.028" y="-0.031"><feOffset color-interpolation-filters="linearRGB" dx="5" dy="-4" in="SourceAlpha" result="shadowOffsetInner1"></feOffset><feComposite color-interpolation-filters="linearRGB" in="shadowOffsetInner1" in2="SourceAlpha" k1="0" k2="-1" k3="1" k4="0" operator="arithmetic" result="shadowInnerInner1"></feComposite><feColorMatrix color-interpolation-filters="linearRGB" in="shadowInnerInner1" result="result3" type="matrix" values="0 0 0 0 0.96138192 0 0 0 0 0.966369264 0 0 0 0 0.979676178 0 0 0 0.5 0"></feColorMatrix></filter><filter height="1.03" id="filter-5" node-id="17" width="1.009" x="-0.004" y="-0.007"><feOffset color-interpolation-filters="linearRGB" dx="0" dy="2" in="SourceAlpha" result="shadowOffsetOuter1"></feOffset><feColorMatrix color-interpolation-filters="linearRGB" in="shadowOffsetOuter1" result="result2" type="matrix" values="0 0 0 0 0 0 0 0 0 0 0 0 0 0 0 0 0 0 0.2 0"></feColorMatrix></filter><filter height="1.261" id="filter-7" node-id="21" width="1.352" x="-0.176" y="-0.13"><feOffset color-interpolation-filters="linearRGB" dx="0" dy="31" in="SourceAlpha" result="shadowOffsetInner1"></feOffset><feComposite color-interpolation-filters="linearRGB" in="shadowOffsetInner1" in2="SourceAlpha" k1="0" k2="-1" k3="1" k4="0" operator="arithmetic" result="shadowInnerInner1"></feComposite><feColorMatrix color-interpolation-filters="linearRGB" in="shadowInnerInner1" result="result3" type="matrix" values="0 0 0 0 0.835294118 0 0 0 0 0.854901961 0 0 0 0 0.941176471 0 0 0 1 0"></feColorMatrix></filter><filter height="1.028" id="filter-8" node-id="25" width="1.027" x="-0.014" y="-0.014"><feOffset color-interpolation-filters="linearRGB" dx="0" dy="2" in="SourceAlpha" result="shadowOffsetOuter1"></feOffset><feColorMatrix color-interpolation-filters="linearRGB" in="shadowOffsetOuter1" result="shadowMatrixOuter1" type="matrix" values="0 0 0 0 0 0 0 0 0 0 0 0 0 0 0 0 0 0 0.2 0"></feColorMatrix><feMerge color-interpolation-filters="linearRGB" result="result3"><feMergeNode in="shadowMatrixOuter1"></feMergeNode><feMergeNode in="SourceGraphic"></feMergeNode></feMerge></filter><filter height="1.038" id="filter-11" node-id="32" width="1.048" x="-0.024" y="-0.019"><feOffset color-interpolation-filters="linearRGB" dx="0" dy="2" in="SourceAlpha" result="shadowOffsetOuter1"></feOffset><feColorMatrix color-interpolation-filters="linearRGB" in="shadowOffsetOuter1" result="shadowMatrixOuter1" type="matrix" values="0 0 0 0 0 0 0 0 0 0 0 0 0 0 0 0 0 0 0.2 0"></feColorMatrix><feMerge color-interpolation-filters="linearRGB" result="result3"><feMergeNode in="shadowMatrixOuter1"></feMergeNode><feMergeNode in="SourceGraphic"></feMergeNode></feMerge></filter><filter height="1.036" id="filter-12" node-id="38" width="1.043" x="-0.021" y="-0.018"><feOffset color-interpolation-filters="linearRGB" dx="0" dy="2" in="SourceAlpha" result="shadowOffsetOuter1"></feOffset><feColorMatrix color-interpolation-filters="linearRGB" in="shadowOffsetOuter1" result="shadowMatrixOuter1" type="matrix" values="0 0 0 0 0 0 0 0 0 0 0 0 0 0 0 0 0 0 0.2 0"></feColorMatrix><feMerge color-interpolation-filters="linearRGB" result="result3"><feMergeNode in="shadowMatrixOuter1"></feMergeNode><feMergeNode in="SourceGraphic"></feMergeNode></feMerge></filter><filter height="1.048" id="filter-14" node-id="45" width="1.012" x="-0.006" y="-0.012"><feOffset color-interpolation-filters="linearRGB" dx="0" dy="2" in="SourceAlpha" result="shadowOffsetOuter1"></feOffset><feColorMatrix color-interpolation-filters="linearRGB" in="shadowOffsetOuter1" result="result2" type="matrix" values="0 0 0 0 0 0 0 0 0 0 0 0 0 0 0 0 0 0 0.2 0"></feColorMatrix></filter><clipPath id="mask-10" node-id="132"><path d="M 550.00 611.00 L 556.00 606.00 L 559.00 606.00 L 568.16 607.69 L 573.86 609.68 L 575.00 613.00 L 585.00 619.00 L 588.00 624.00 L 588.97 628.12 L 595.19 642.99 L 598.00 646.51 L 598.00 651.62 L 596.97 655.21 L 596.13 656.55 L 594.98 657.54 L 593.44 658.20 L 592.23 658.37 L 591.13 658.16 L 590.07 657.57 L 589.01 656.51 L 589.34 668.71 L 555.00 660.00 L 558.00 651.00 L 550.00 620.12 L 550.00 611.00 Z" fill="#000000" fill-rule="evenodd" node-id="315" stroke="none" target-height="62.713196" target-width="48.00116" target-x="550" target-y="606"></path></clipPath><clipPath id="mask-16" node-id="216"><path d="M 624.34 636.61 L 625.07 634.27 L 629.70 632.24 L 638.12 631.44 L 641.05 633.48 L 641.91 635.33 L 651.59 635.52 L 654.86 636.61 L 661.21 635.84 L 654.37 628.61 L 651.78 625.38 L 653.11 622.68 L 656.91 619.95 L 662.20 623.49 L 667.99 626.79 L 674.94 632.09 L 677.13 637.66 L 676.30 640.77 L 671.74 647.28 L 660.21 654.90 L 656.83 677.79 L 659.42 685.80 L 661.03 690.25 L 653.00 696.43 L 624.69 698.26 L 619.52 693.08 L 621.17 687.01 L 624.26 680.11 L 616.24 666.82 L 612.43 671.67 L 613.41 673.86 L 619.90 679.25 L 620.15 682.77 L 618.92 685.80 L 615.62 685.66 L 601.70 679.25 L 596.69 674.23 L 596.00 668.91 L 599.62 661.75 L 605.09 651.25 L 607.44 644.64 L 614.50 639.44 Z" fill="#000000" fill-rule="evenodd" node-id="322" stroke="none" target-height="78.315735" target-width="81.13141" target-x="596" target-y="619.945"></path></clipPath></defs><g node-id="610"><g node-id="611"><g node-id="612"><path d="M 1222.68 194.12 L 1398.65 293.55 L 1402.85 295.61 L 1407.14 297.14 L 1411.57 298.15 L 1416.08 298.66 L 1420.58 298.66 L 1425.09 298.15 L 1429.51 297.14 L 1433.81 295.61 L 1438.01 293.55 L 1479.47 270.12 L 1483.67 268.07 L 1487.96 266.54 L 1492.39 265.52 L 1496.90 265.01 L 1501.40 265.01 L 1505.91 265.52 L 1510.33 266.54 L 1514.63 268.06 L 1518.83 270.12 L 1601.59 316.88 L 1603.10 317.92 L 1604.33 319.14 L 1605.31 320.55 L 1606.05 322.10 L 1606.50 323.73 L 1606.67 325.44 L 1606.55 327.15 L 1606.13 328.83 L 1605.38 330.50 L 1604.34 332.00 L 1603.09 333.25 L 1601.59 334.29 L 1485.53 399.88 L 1481.33 401.93 L 1477.04 403.46 L 1472.61 404.48 L 1468.10 404.99 L 1463.60 404.99 L 1459.09 404.48 L 1454.67 403.46 L 1450.37 401.94 L 1446.17 399.88 L 1420.38 385.31 L 1416.39 383.36 L 1412.31 381.91 L 1408.11 380.94 L 1403.82 380.46 L 1399.54 380.46 L 1395.26 380.94 L 1391.05 381.91 L 1386.97 383.36 L 1382.98 385.31 L 1381.15 386.59 L 1379.66 388.07 L 1378.46 389.77 L 1377.57 391.66 L 1377.02 393.63 L 1376.81 395.71 L 1376.96 397.79 L 1377.47 399.83 L 1378.38 401.86 L 1379.64 403.68 L 1381.16 405.20 L 1382.98 406.46 L 1470.18 455.79 L 1471.97 457.15 L 1473.28 458.85 L 1474.11 460.81 L 1474.41 462.92 L 1474.17 465.05 L 1473.33 467.14 L 1471.97 468.93 L 1470.18 470.29 L 1468.39 471.65 L 1467.08 473.35 L 1466.26 475.31 L 1465.95 477.42 L 1466.20 479.55 L 1467.03 481.64 L 1468.40 483.43 L 1470.19 484.79 L 1651.59 587.29 L 1653.10 588.34 L 1654.33 589.56 L 1655.32 590.97 L 1656.05 592.52 L 1656.50 594.14 L 1656.68 595.85 L 1656.56 597.57 L 1656.13 599.25 L 1655.38 600.92 L 1654.35 602.42 L 1653.09 603.67 L 1651.60 604.71 L 1341.68 779.88 L 1337.48 781.93 L 1333.19 783.46 L 1328.76 784.48 L 1324.25 784.99 L 1319.75 784.99 L 1315.24 784.48 L 1310.81 783.46 L 1306.52 781.93 L 1302.32 779.88 L 1193.78 718.55 L 1189.58 716.49 L 1185.29 714.97 L 1180.86 713.95 L 1176.35 713.44 L 1171.85 713.44 L 1167.34 713.95 L 1162.91 714.97 L 1158.62 716.49 L 1154.42 718.55 L 1148.53 721.88 L 1144.33 723.93 L 1140.04 725.46 L 1135.61 726.48 L 1131.10 726.99 L 1126.60 726.99 L 1122.09 726.48 L 1117.67 725.46 L 1113.37 723.94 L 1109.17 721.88 L 1055.83 691.74 L 1051.64 689.69 L 1047.34 688.16 L 1042.92 687.15 L 1038.41 686.63 L 1033.91 686.63 L 1029.40 687.14 L 1024.98 688.16 L 1020.68 689.69 L 1016.49 691.74 L 816.11 804.89 L 811.92 806.95 L 807.62 808.47 L 803.20 809.49 L 798.69 810.00 L 794.20 810.00 L 789.69 809.49 L 785.27 808.47 L 780.97 806.95 L 776.78 804.90 L 729.75 778.35 L 725.56 776.30 L 721.26 774.77 L 716.84 773.76 L 712.33 773.25 L 707.83 773.25 L 703.32 773.76 L 698.90 774.78 L 694.60 776.31 L 690.41 778.36 L 516.14 876.87 L 511.94 878.93 L 507.64 880.46 L 503.22 881.48 L 498.70 881.99 L 494.20 881.99 L 489.69 881.48 L 485.27 880.46 L 480.97 878.93 L 476.77 876.88 L 320.40 788.51 L 318.90 787.46 L 317.67 786.24 L 316.68 784.84 L 315.95 783.28 L 315.50 781.66 L 315.32 779.95 L 315.44 778.24 L 315.87 776.56 L 316.62 774.88 L 317.65 773.39 L 318.91 772.13 L 320.40 771.10 L 530.86 652.13 L 535.06 650.07 L 539.36 648.54 L 543.78 647.52 L 548.30 647.01 L 552.80 647.01 L 557.31 647.52 L 561.73 648.54 L 566.03 650.07 L 570.23 652.12 L 578.34 656.71 L 582.53 658.76 L 586.83 660.29 L 591.25 661.31 L 595.76 661.82 L 600.26 661.82 L 604.77 661.31 L 609.20 660.29 L 613.49 658.77 L 617.69 656.71 L 702.52 608.81 L 704.02 607.76 L 705.26 606.54 L 706.24 605.14 L 706.98 603.58 L 707.43 601.96 L 707.60 600.25 L 707.48 598.54 L 707.06 596.86 L 706.31 595.18 L 705.27 593.69 L 704.01 592.43 L 702.52 591.39 L 641.71 557.06 L 637.51 555.01 L 633.22 553.48 L 628.80 552.47 L 624.29 551.96 L 619.79 551.96 L 615.28 552.47 L 610.86 553.49 L 606.56 555.01 L 602.37 557.06 L 406.11 667.89 L 401.92 669.95 L 397.62 671.47 L 393.20 672.49 L 388.69 673.00 L 384.20 673.00 L 379.69 672.49 L 375.27 671.47 L 370.97 669.95 L 366.78 667.90 L 171.42 557.61 L 169.92 556.56 L 168.68 555.34 L 167.70 553.94 L 166.97 552.38 L 166.51 550.76 L 166.34 549.05 L 166.46 547.34 L 166.88 545.66 L 167.63 543.98 L 168.67 542.49 L 169.92 541.23 L 171.42 540.19 L 431.89 393.11 L 436.08 391.05 L 440.38 389.53 L 444.80 388.51 L 449.31 388.00 L 453.80 388.00 L 458.31 388.51 L 462.73 389.53 L 467.03 391.05 L 471.22 393.10 L 584.29 456.94 L 588.49 458.99 L 592.78 460.52 L 597.20 461.53 L 601.71 462.04 L 606.21 462.04 L 610.72 461.53 L 615.14 460.51 L 619.43 458.99 L 623.63 456.94 L 649.06 442.57 L 650.57 441.53 L 651.80 440.31 L 652.78 438.90 L 653.52 437.35 L 653.97 435.73 L 654.14 434.01 L 654.03 432.30 L 653.60 430.62 L 652.85 428.95 L 651.82 427.45 L 650.56 426.20 L 649.07 425.16 L 593.39 393.67 L 591.88 392.62 L 590.65 391.40 L 589.66 389.99 L 588.93 388.44 L 588.48 386.81 L 588.31 385.10 L 588.43 383.39 L 588.85 381.71 L 589.60 380.04 L 590.64 378.55 L 591.89 377.29 L 593.38 376.26 L 742.04 292.14 L 746.24 290.09 L 750.54 288.55 L 754.97 287.53 L 759.49 287.02 L 763.99 287.02 L 768.51 287.53 L 772.93 288.55 L 777.24 290.08 L 781.43 292.14 L 875.94 345.60 L 880.14 347.66 L 884.43 349.19 L 888.86 350.21 L 893.38 350.72 L 897.88 350.72 L 902.39 350.21 L 906.82 349.19 L 911.12 347.66 L 915.31 345.60 L 1183.32 194.12 L 1187.52 192.07 L 1191.81 190.54 L 1196.24 189.52 L 1200.75 189.01 L 1205.25 189.01 L 1209.76 189.52 L 1214.19 190.54 L 1218.48 192.07 L 1222.68 194.12 Z M 1105.16 775.13 L 1133.61 791.22 L 1135.11 792.26 L 1136.34 793.48 L 1137.33 794.89 L 1138.06 796.44 L 1138.51 798.07 L 1138.69 799.78 L 1138.57 801.49 L 1138.14 803.17 L 1137.39 804.84 L 1136.36 806.34 L 1135.10 807.59 L 1133.61 808.62 L 1087.22 834.86 L 1083.02 836.92 L 1078.72 838.45 L 1074.29 839.47 L 1069.78 839.98 L 1065.28 839.98 L 1060.76 839.47 L 1056.33 838.45 L 1052.03 836.92 L 1047.84 834.87 L 1019.39 818.78 L 1017.89 817.74 L 1016.66 816.52 L 1015.67 815.11 L 1014.94 813.56 L 1014.49 811.93 L 1014.31 810.22 L 1014.43 808.51 L 1014.86 806.83 L 1015.61 805.16 L 1016.64 803.66 L 1017.90 802.41 L 1019.39 801.38 L 1065.78 775.14 L 1069.98 773.08 L 1074.28 771.55 L 1078.71 770.53 L 1083.22 770.02 L 1087.72 770.02 L 1092.24 770.53 L 1096.67 771.55 L 1100.97 773.08 L 1105.16 775.13 Z M 256.46 763.08 L 257.41 763.61 L 259.42 765.00 L 261.06 766.62 L 262.37 768.50 L 263.35 770.57 L 263.96 772.73 L 264.19 775.01 L 264.04 777.29 L 263.47 779.53 L 262.47 781.76 L 261.09 783.76 L 259.41 785.44 L 257.41 786.83 L 244.83 793.92 L 240.64 795.97 L 236.35 797.49 L 231.93 798.51 L 227.43 799.02 L 222.94 799.02 L 218.43 798.51 L 214.02 797.49 L 209.73 795.97 L 205.54 793.92 L 199.45 790.49 L 197.94 789.45 L 196.71 788.23 L 195.72 786.83 L 194.99 785.27 L 194.54 783.65 L 194.36 781.94 L 194.48 780.23 L 194.90 778.55 L 195.65 776.87 L 196.69 775.37 L 197.95 774.11 L 199.45 773.07 L 217.17 763.08 L 221.36 761.03 L 225.65 759.51 L 230.07 758.49 L 234.57 757.98 L 239.06 757.98 L 243.57 758.49 L 247.98 759.51 L 252.27 761.03 L 256.46 763.08 Z M 1021.39 492.55 L 933.48 542.19 L 931.98 543.24 L 930.74 544.46 L 929.76 545.86 L 929.02 547.42 L 928.57 549.04 L 928.40 550.75 L 928.52 552.46 L 928.94 554.14 L 929.69 555.82 L 930.73 557.31 L 931.98 558.57 L 933.48 559.61 L 1043.87 621.93 L 1048.07 623.98 L 1052.37 625.51 L 1056.79 626.52 L 1061.30 627.03 L 1065.80 627.03 L 1070.31 626.52 L 1074.73 625.50 L 1079.03 623.97 L 1083.22 621.92 L 1224.45 542.09 L 1225.96 541.05 L 1227.19 539.83 L 1228.17 538.42 L 1228.91 536.87 L 1229.36 535.24 L 1229.53 533.53 L 1229.41 531.82 L 1228.99 530.14 L 1228.24 528.47 L 1227.20 526.97 L 1225.95 525.72 L 1224.45 524.68 L 1200.13 510.93 L 1195.94 508.87 L 1191.64 507.34 L 1187.21 506.32 L 1182.70 505.81 L 1178.20 505.81 L 1173.68 506.32 L 1169.25 507.34 L 1164.95 508.86 L 1160.76 510.92 L 1146.68 518.88 L 1142.48 520.93 L 1138.19 522.46 L 1133.76 523.48 L 1129.25 523.99 L 1124.75 523.99 L 1120.24 523.48 L 1115.81 522.46 L 1111.52 520.93 L 1107.32 518.88 L 1060.73 492.56 L 1056.54 490.50 L 1052.24 488.97 L 1047.82 487.96 L 1043.31 487.44 L 1038.81 487.44 L 1034.30 487.95 L 1029.88 488.97 L 1025.58 490.50 L 1021.39 492.55 Z M 107.31 477.08 L 140.56 495.84 L 142.07 496.88 L 143.30 498.10 L 144.28 499.51 L 145.02 501.06 L 145.47 502.68 L 145.65 504.39 L 145.53 506.11 L 145.11 507.79 L 144.36 509.46 L 143.32 510.96 L 142.06 512.22 L 140.56 513.26 L 88.00 542.91 L 83.81 544.96 L 79.51 546.49 L 75.10 547.50 L 70.59 548.01 L 66.10 548.01 L 61.59 547.50 L 57.17 546.49 L 52.88 544.96 L 48.69 542.92 L 15.44 524.16 L 13.93 523.12 L 12.70 521.90 L 11.72 520.49 L 10.98 518.94 L 10.53 517.32 L 10.35 515.61 L 10.47 513.89 L 10.89 512.21 L 11.64 510.54 L 12.68 509.04 L 13.94 507.78 L 15.44 506.74 L 68.00 477.09 L 72.19 475.04 L 76.49 473.51 L 80.90 472.50 L 85.41 471.99 L 89.90 471.99 L 94.41 472.50 L 98.83 473.51 L 103.12 475.04 L 107.31 477.08 Z M 777.83 102.12 L 860.59 148.88 L 862.10 149.92 L 863.33 151.14 L 864.31 152.55 L 865.05 154.10 L 865.50 155.73 L 865.67 157.44 L 865.55 159.15 L 865.13 160.83 L 864.38 162.50 L 863.34 164.00 L 862.09 165.25 L 860.59 166.29 L 744.53 231.88 L 740.33 233.93 L 736.04 235.46 L 731.61 236.48 L 727.10 236.99 L 722.60 236.99 L 718.09 236.48 L 713.67 235.46 L 709.37 233.94 L 705.17 231.88 L 622.41 185.12 L 620.90 184.08 L 619.67 182.86 L 618.69 181.45 L 617.95 179.90 L 617.50 178.27 L 617.33 176.56 L 617.45 174.85 L 617.87 173.17 L 618.62 171.50 L 619.66 170.00 L 620.91 168.75 L 622.41 167.71 L 738.47 102.12 L 742.67 100.07 L 746.96 98.54 L 751.39 97.52 L 755.90 97.01 L 760.40 97.01 L 764.91 97.52 L 769.33 98.54 L 773.63 100.06 L 777.83 102.12 Z M 1545.36 193.11 L 1557.58 200.01 L 1559.09 201.06 L 1560.32 202.28 L 1561.31 203.68 L 1562.04 205.24 L 1562.49 206.86 L 1562.67 208.57 L 1562.55 210.29 L 1562.12 211.97 L 1561.37 213.64 L 1560.34 215.14 L 1559.08 216.39 L 1557.58 217.43 L 1531.99 231.89 L 1527.79 233.94 L 1523.50 235.47 L 1519.07 236.49 L 1514.56 237.00 L 1510.07 237.00 L 1505.56 236.49 L 1501.13 235.47 L 1496.84 233.94 L 1492.64 231.89 L 1480.42 224.99 L 1478.91 223.94 L 1477.68 222.72 L 1476.69 221.32 L 1475.96 219.76 L 1475.51 218.14 L 1475.33 216.43 L 1475.45 214.71 L 1475.88 213.03 L 1476.63 211.36 L 1477.66 209.86 L 1478.92 208.61 L 1480.42 207.57 L 1506.01 193.11 L 1510.21 191.06 L 1514.50 189.53 L 1518.93 188.51 L 1523.44 188.00 L 1527.93 188.00 L 1532.44 188.51 L 1536.87 189.53 L 1541.16 191.06 L 1545.36 193.11 Z M 347.31 106.08 L 380.56 124.84 L 382.07 125.88 L 383.30 127.10 L 384.28 128.51 L 385.02 130.06 L 385.47 131.68 L 385.65 133.39 L 385.53 135.11 L 385.11 136.79 L 384.36 138.46 L 383.32 139.96 L 382.06 141.22 L 380.56 142.26 L 328.00 171.91 L 323.81 173.96 L 319.51 175.49 L 315.10 176.50 L 310.59 177.01 L 306.10 177.01 L 301.59 176.50 L 297.17 175.49 L 292.88 173.96 L 288.69 171.92 L 255.44 153.16 L 253.93 152.12 L 252.70 150.90 L 251.72 149.49 L 250.98 147.94 L 250.53 146.32 L 250.35 144.61 L 250.47 142.89 L 250.89 141.21 L 251.64 139.54 L 252.68 138.04 L 253.94 136.78 L 255.44 135.74 L 308.00 106.09 L 312.19 104.04 L 316.49 102.51 L 320.90 101.50 L 325.41 100.99 L 329.90 100.99 L 334.41 101.50 L 338.83 102.51 L 343.12 104.04 L 347.31 106.08 Z" fill="#e8e5df" fill-opacity="0.5" fill-rule="evenodd" group-id="1,2,3" id="形状" node-id="52" stroke="none" target-height="784.982" target-width="1646.3224" target-x="10.353132" target-y="97.0074"></path></g><g node-id="613"><path d="M 1087.66 624.95 L 1132.84 650.75 L 1137.24 653.63 L 1141.17 656.91 L 1144.68 660.62 L 1147.73 664.71 L 1150.26 669.09 L 1152.30 673.77 L 1153.78 678.65 L 1154.68 683.71 L 1155.00 688.96 L 1154.74 691.72 L 1154.03 694.25 L 1152.90 696.59 L 1151.37 698.70 L 1149.54 700.47 L 1147.38 701.94 L 1134.50 709.00 L 1134.59 705.90 L 1134.27 703.87 L 1133.66 702.60 L 1132.84 701.86 L 1087.66 676.06 L 1084.88 674.20 L 1081.92 671.63 L 1078.75 668.22 L 1075.34 663.82 L 1071.68 658.26 L 1067.75 651.38 L 1063.52 642.98 L 1059.00 632.84 L 1073.80 624.51 L 1075.83 623.69 L 1078.00 623.18 L 1080.32 623.00 L 1082.88 623.22 L 1085.32 623.87 L 1087.66 624.95 Z" fill="#f8f9fd" fill-rule="evenodd" filter="url(#filter-1)" group-id="1,2,4" id="矩形备份-7" node-id="54" stroke="none" target-height="86" target-width="96" target-x="1059" target-y="623"></path><g node-id="621"><g node-id="645"><path d="M 1074.28 631.95 L 1119.72 657.82 L 1124.14 660.70 L 1128.10 663.99 L 1131.62 667.71 L 1134.69 671.81 L 1137.24 676.20 L 1139.28 680.89 L 1140.78 685.79 L 1141.68 690.85 L 1142.00 696.11 L 1141.75 698.83 L 1141.07 701.32 L 1139.97 703.63 L 1138.48 705.72 L 1136.71 707.49 L 1134.62 708.97 L 1132.31 710.07 L 1129.82 710.75 L 1127.10 711.00 L 1124.52 710.77 L 1122.07 710.13 L 1119.72 709.05 L 1074.28 683.18 L 1069.86 680.30 L 1065.90 677.01 L 1062.38 673.29 L 1059.31 669.19 L 1056.76 664.80 L 1054.72 660.11 L 1053.22 655.21 L 1052.32 650.15 L 1052.00 644.89 L 1052.25 642.17 L 1052.93 639.68 L 1054.03 637.37 L 1055.52 635.28 L 1057.29 633.51 L 1059.38 632.03 L 1061.69 630.93 L 1064.18 630.25 L 1066.90 630.00 L 1069.48 630.23 L 1071.93 630.87 L 1074.28 631.95 Z" fill="#d5daf0" fill-rule="evenodd" group-id="1,2,4,12,36" node-id="339" stroke="none" target-height="81" target-width="90" target-x="1052" target-y="630"></path></g><path d="M 1074.28 631.95 L 1119.72 657.82 L 1124.14 660.70 L 1128.10 663.99 L 1131.62 667.71 L 1134.69 671.81 L 1137.24 676.20 L 1139.28 680.89 L 1140.78 685.79 L 1141.68 690.85 L 1142.00 696.11 L 1141.75 698.83 L 1141.07 701.32 L 1139.97 703.63 L 1138.48 705.72 L 1136.71 707.49 L 1134.62 708.97 L 1132.31 710.07 L 1129.82 710.75 L 1127.10 711.00 L 1124.52 710.77 L 1122.07 710.13 L 1119.72 709.05 L 1074.28 683.18 L 1069.86 680.30 L 1065.90 677.01 L 1062.38 673.29 L 1059.31 669.19 L 1056.76 664.80 L 1054.72 660.11 L 1053.22 655.21 L 1052.32 650.15 L 1052.00 644.89 L 1052.25 642.17 L 1052.93 639.68 L 1054.03 637.37 L 1055.52 635.28 L 1057.29 633.51 L 1059.38 632.03 L 1061.69 630.93 L 1064.18 630.25 L 1066.90 630.00 L 1069.48 630.23 L 1071.93 630.87 L 1074.28 631.95 Z" fill="#000000" fill-rule="evenodd" filter="url(#filter-3)" group-id="1,2,4,12,37" node-id="344" stroke="none" target-height="81" target-width="90" target-x="1052" target-y="630"></path></g><path d="M 1119.50 659.79 L 1123.57 662.43 L 1127.21 665.45 L 1130.45 668.86 L 1133.27 672.62 L 1135.62 676.64 L 1137.50 680.94 L 1138.87 685.43 L 1139.71 690.07 L 1140.00 694.89 L 1140.00 695.35 L 1139.77 697.84 L 1139.14 700.13 L 1138.13 702.24 L 1136.77 704.15 L 1135.13 705.78 L 1133.21 707.14 L 1131.08 708.15 L 1128.79 708.77 L 1126.29 709.00 L 1123.91 708.79 L 1121.66 708.20 L 1119.50 707.21 L 1115.43 704.57 L 1111.79 701.55 L 1108.55 698.14 L 1105.73 694.38 L 1103.38 690.36 L 1101.50 686.06 L 1100.13 681.57 L 1099.29 676.93 L 1099.00 672.11 L 1099.00 671.65 L 1099.23 669.16 L 1099.86 666.87 L 1100.87 664.76 L 1102.23 662.85 L 1103.87 661.22 L 1105.79 659.86 L 1107.92 658.85 L 1110.21 658.23 L 1112.71 658.00 L 1115.09 658.21 L 1117.34 658.80 L 1119.50 659.79 Z" fill="#febc08" fill-rule="evenodd" filter="url(#filter-1)" group-id="1,2,4" id="矩形" node-id="58" stroke="none" target-height="51" target-width="41" target-x="1099" target-y="658"></path></g><g node-id="614"><g node-id="622"><g node-id="647"><g node-id="664"><path d="M 464.03 466.12 L 464.99 465.73 L 466.00 465.60 L 467.01 465.73 L 467.97 466.12 L 551.64 507.82 L 551.73 508.19 L 552.00 511.00 L 551.88 515.93 L 551.77 516.96 L 551.36 517.97 L 550.71 518.83 L 549.85 519.48 L 410.90 598.10 L 408.66 599.11 L 406.37 599.71 L 404.00 599.91 L 401.63 599.71 L 399.34 599.11 L 397.10 598.09 L 320.15 554.48 L 319.29 553.83 L 318.67 553.02 L 318.27 552.09 L 318.12 551.08 L 318.00 547.00 L 318.20 543.54 L 318.59 542.27 L 319.00 542.00 L 327.10 541.73 L 335.33 540.89 L 343.73 539.49 L 352.30 537.50 L 361.08 534.88 L 370.08 531.62 L 379.31 527.67 L 388.80 523.01 L 398.58 517.58 L 408.64 511.34 L 419.02 504.23 L 429.74 496.22 L 440.80 487.24 L 452.22 477.22 L 464.03 466.12 Z" fill="#000000" fill-rule="evenodd" filter="url(#filter-5)" group-id="1,2,5,13,38,55" node-id="355" stroke="none" target-height="134.31476" target-width="234" target-x="318" target-y="465.59674"></path></g><path d="M 464.03 466.12 L 464.99 465.73 L 466.00 465.60 L 467.01 465.73 L 467.97 466.12 L 551.64 507.82 L 551.73 508.19 L 552.00 511.00 L 551.88 515.93 L 551.77 516.96 L 551.36 517.97 L 550.71 518.83 L 549.85 519.48 L 410.90 598.10 L 408.66 599.11 L 406.37 599.71 L 404.00 599.91 L 401.63 599.71 L 399.34 599.11 L 397.10 598.09 L 320.15 554.48 L 319.29 553.83 L 318.67 553.02 L 318.27 552.09 L 318.12 551.08 L 318.00 547.00 L 318.20 543.54 L 318.59 542.27 L 319.00 542.00 L 327.10 541.73 L 335.33 540.89 L 343.73 539.49 L 352.30 537.50 L 361.08 534.88 L 370.08 531.62 L 379.31 527.67 L 388.80 523.01 L 398.58 517.58 L 408.64 511.34 L 419.02 504.23 L 429.74 496.22 L 440.80 487.24 L 452.22 477.22 L 464.03 466.12 Z" fill="#d5daf0" fill-rule="evenodd" group-id="1,2,5,13,38,56" node-id="360" stroke="none" target-height="134.31476" target-width="234" target-x="318" target-y="465.59674"></path></g><path d="M 320.15 539.52 L 464.03 458.12 L 464.99 457.73 L 466.00 457.60 L 467.01 457.73 L 467.97 458.12 L 549.85 504.52 L 551.06 505.57 L 551.74 506.93 L 551.86 508.45 L 551.36 509.97 L 550.71 510.83 L 549.85 511.48 L 410.90 590.10 L 408.66 591.11 L 406.37 591.71 L 404.00 591.91 L 401.63 591.71 L 399.34 591.11 L 397.10 590.09 L 320.15 546.48 L 318.94 545.43 L 318.26 544.07 L 318.14 542.55 L 318.64 541.03 L 319.29 540.17 L 320.15 539.52 Z" fill="#f8f9fd" fill-rule="evenodd" group-id="1,2,5,13" id="矩形" node-id="64" stroke="none" target-height="134.31476" target-width="233.71515" target-x="318.1424" target-y="457.59674"></path><path d="M 388.00 475.00 L 476.00 425.00 L 396.00 549.00 L 388.00 544.00 Z" fill="#d5daf0" fill-rule="evenodd" group-id="1,2,5,13" id="矩形" node-id="65" stroke="none" target-height="124" target-width="88" target-x="388" target-y="425"></path><path d="M 396.00 480.00 L 484.00 430.00 L 484.00 499.00 L 396.00 549.00 Z" fill="#ededf7" fill-rule="evenodd" group-id="1,2,5,13,39,57" node-id="369" stroke="none" target-height="119" target-width="88" target-x="396" target-y="430"></path><path d="M 396.00 480.00 L 484.00 430.00 L 484.00 499.00 L 396.00 549.00 Z" fill="#000000" fill-rule="evenodd" filter="url(#filter-7)" group-id="1,2,5,13,39,58" node-id="374" stroke="none" target-height="119" target-width="88" target-x="396" target-y="430"></path><path d="M 248.23 264.39 L 577.08 78.44 L 579.42 77.48 L 581.81 77.14 L 584.19 77.38 L 586.44 78.18 L 598.00 84.00 L 599.89 86.33 L 600.77 87.92 L 601.00 89.00 L 592.00 356.50 L 591.78 360.09 L 591.16 363.55 L 590.14 366.89 L 588.74 370.10 L 587.00 373.09 L 584.90 375.88 L 582.49 378.41 L 579.79 380.65 L 576.77 382.61 L 249.00 574.00 L 238.15 568.60 L 236.67 567.60 L 235.39 566.34 L 234.30 564.78 L 233.58 563.21 L 233.15 561.58 L 233.00 559.86 L 233.00 290.50 L 233.22 286.91 L 233.84 283.45 L 234.86 280.11 L 236.26 276.90 L 238.00 273.91 L 240.10 271.12 L 242.51 268.59 L 245.21 266.35 L 248.23 264.39 Z" fill="#d5daf0" fill-rule="evenodd" group-id="1,2,5,13" id="矩形" node-id="69" stroke="none" target-height="496.85742" target-width="368" target-x="233" target-y="77.14257"></path><path d="M 258.23 269.39 L 587.08 83.44 L 588.75 82.69 L 590.43 82.26 L 592.14 82.14 L 593.85 82.32 L 595.48 82.77 L 597.03 83.50 L 598.44 84.48 L 599.66 85.72 L 600.70 87.22 L 601.42 88.79 L 601.85 90.42 L 602.00 92.14 L 602.00 361.50 L 601.78 365.09 L 601.16 368.55 L 600.14 371.89 L 598.74 375.10 L 597.00 378.09 L 594.90 380.88 L 592.49 383.41 L 589.79 385.65 L 586.77 387.61 L 257.92 573.56 L 256.25 574.31 L 254.57 574.74 L 252.86 574.86 L 251.15 574.68 L 249.52 574.23 L 247.97 573.50 L 246.56 572.52 L 245.34 571.28 L 244.30 569.78 L 243.58 568.21 L 243.15 566.58 L 243.00 564.86 L 243.00 295.50 L 243.22 291.91 L 243.84 288.45 L 244.86 285.11 L 246.26 281.90 L 248.00 278.91 L 250.10 276.12 L 252.51 273.59 L 255.21 271.35 L 258.23 269.39 Z" fill="#a0a4c3" fill-rule="evenodd" group-id="1,2,5,13" id="矩形" node-id="70" stroke="none" target-height="492.71588" target-width="359" target-x="243" target-y="82.14202"></path><path d="M 243.00 538.00 L 602.00 335.00 L 602.00 361.50 L 601.78 365.09 L 601.16 368.55 L 600.14 371.89 L 598.74 375.10 L 597.00 378.09 L 594.90 380.88 L 592.49 383.41 L 589.79 385.65 L 586.77 387.61 L 257.92 573.56 L 256.25 574.31 L 254.57 574.74 L 252.86 574.86 L 251.15 574.68 L 249.52 574.23 L 247.97 573.50 L 246.56 572.52 L 245.34 571.28 L 244.30 569.78 L 243.58 568.21 L 243.15 566.58 L 243.00 564.86 L 243.00 538.00 L 243.00 538.00 Z" fill="#f8f9fd" fill-rule="evenodd" group-id="1,2,5,13" id="矩形" node-id="71" stroke="none" target-height="239.85791" target-width="359" target-x="243" target-y="335"></path></g><g node-id="623"><path d="M 335.00 437.85 L 335.00 452.85 L 285.00 481.17 L 285.00 466.17 Z" fill="#d5daf0" fill-rule="evenodd" group-id="1,2,5,14" id="路径" node-id="73" stroke="none" target-height="43.322998" target-width="50" target-x="285" target-y="437.851"></path><path d="M 418.00 365.84 L 418.00 381.00 L 285.00 456.17 L 285.00 441.17 L 345.00 407.26 L 345.00 407.19 L 359.00 399.26 L 359.00 399.35 L 369.00 393.69 L 369.00 393.59 Z" fill="#d5daf0" fill-rule="evenodd" group-id="1,2,5,14" id="路径" node-id="74" stroke="none" target-height="90.33899" target-width="133" target-x="285" target-y="365.83502"></path><path d="M 418.00 339.84 L 418.00 355.00 L 285.00 430.17 L 285.00 415.17 L 345.00 381.26 L 345.00 381.19 L 359.00 373.26 L 359.00 373.35 L 369.00 367.69 L 369.00 367.59 Z" fill="#fec11b" fill-rule="evenodd" group-id="1,2,5,14" id="路径" node-id="75" stroke="none" target-height="90.33899" target-width="133" target-x="285" target-y="339.83502"></path><path d="M 335.00 284.85 L 335.00 350.85 L 285.00 379.17 L 285.00 313.17 Z" fill="#fec11b" fill-rule="evenodd" group-id="1,2,5,14" id="路径" node-id="76" stroke="none" target-height="94.324005" target-width="50" target-x="285" target-y="284.85"></path><path d="M 465.00 211.21 L 465.00 354.21 L 428.00 375.17 L 428.00 232.17 Z" fill="#d5daf0" fill-rule="evenodd" group-id="1,2,5,14" id="路径" node-id="77" stroke="none" target-height="163.95901" target-width="37" target-x="428" target-y="211.212"></path><path d="M 524.00 330.79 L 524.00 345.79 L 475.00 373.55 L 475.00 358.55 Z" fill="#d5daf0" fill-rule="evenodd" group-id="1,2,5,14" id="路径" node-id="78" stroke="none" target-height="42.75598" target-width="49" target-x="475" target-y="330.79102"></path><path d="M 524.00 305.79 L 524.00 320.79 L 475.00 348.55 L 475.00 333.55 Z" fill="#fec11b" fill-rule="evenodd" group-id="1,2,5,14" id="路径" node-id="79" stroke="none" target-height="42.75598" target-width="49" target-x="475" target-y="305.79102"></path><path d="M 359.00 322.26 L 359.00 337.26 L 345.00 345.19 L 345.00 330.19 Z" fill="#d5daf0" fill-rule="evenodd" group-id="1,2,5,14" id="路径" node-id="80" stroke="none" target-height="22.930023" target-width="14" target-x="345" target-y="322.25598"></path><path d="M 418.00 288.84 L 418.00 303.84 L 369.00 331.59 L 369.00 316.59 Z" fill="#d5daf0" fill-rule="evenodd" group-id="1,2,5,14" id="路径" node-id="81" stroke="none" target-height="42.75598" target-width="49" target-x="369" target-y="288.83502"></path><path d="M 524.00 279.79 L 524.00 294.79 L 475.00 322.55 L 475.00 307.55 Z" fill="#d5daf0" fill-rule="evenodd" group-id="1,2,5,14" id="路径" node-id="82" stroke="none" target-height="42.75598" target-width="49" target-x="475" target-y="279.79102"></path><path d="M 359.00 297.26 L 359.00 312.26 L 345.00 320.19 L 345.00 305.19 Z" fill="#d5daf0" fill-rule="evenodd" group-id="1,2,5,14" id="路径" node-id="83" stroke="none" target-height="22.930023" target-width="14" target-x="345" target-y="297.25598"></path><path d="M 566.00 282.00 L 566.00 297.00 L 534.00 315.13 L 534.00 300.13 Z" fill="#d5daf0" fill-rule="evenodd" group-id="1,2,5,14" id="路径" node-id="84" stroke="none" target-height="33.127014" target-width="32" target-x="534" target-y="282"></path><path d="M 418.00 263.83 L 418.00 278.83 L 369.00 306.59 L 369.00 291.59 Z" fill="#d5daf0" fill-rule="evenodd" group-id="1,2,5,14" id="路径" node-id="85" stroke="none" target-height="42.756012" target-width="49" target-x="369" target-y="263.835"></path><path d="M 566.00 230.00 L 566.00 245.00 L 565.00 245.57 L 565.00 245.79 L 475.00 296.55 L 475.00 281.55 L 534.00 248.27 L 534.00 248.13 Z" fill="#d5daf0" fill-rule="evenodd" group-id="1,2,5,14" id="路径" node-id="86" stroke="none" target-height="66.547" target-width="91" target-x="475" target-y="230"></path><path d="M 359.00 271.26 L 359.00 286.26 L 345.00 294.19 L 345.00 279.19 Z" fill="#d5daf0" fill-rule="evenodd" group-id="1,2,5,14" id="路径" node-id="87" stroke="none" target-height="22.930023" target-width="14" target-x="345" target-y="271.25598"></path><path d="M 566.00 256.00 L 566.00 271.00 L 534.00 289.13 L 534.00 274.13 Z" fill="#fec11b" fill-rule="evenodd" group-id="1,2,5,14" id="路径" node-id="88" stroke="none" target-height="33.127014" target-width="32" target-x="534" target-y="256"></path><path d="M 418.00 237.83 L 418.00 252.83 L 369.00 280.59 L 369.00 265.59 Z" fill="#d5daf0" fill-rule="evenodd" group-id="1,2,5,14" id="路径" node-id="89" stroke="none" target-height="42.756012" target-width="49" target-x="369" target-y="237.83499"></path><path d="M 566.00 205.00 L 566.00 220.00 L 565.00 220.57 L 565.00 220.79 L 475.00 271.55 L 475.00 256.55 L 534.00 223.27 L 534.00 223.13 Z" fill="#d5daf0" fill-rule="evenodd" group-id="1,2,5,14" id="路径" node-id="90" stroke="none" target-height="66.547" target-width="91" target-x="475" target-y="205"></path><path d="M 566.00 180.00 L 566.00 195.00 L 565.00 195.57 L 565.00 195.79 L 475.00 246.55 L 475.00 231.55 L 534.00 198.27 L 534.00 198.13 Z" fill="#fec11b" fill-rule="evenodd" group-id="1,2,5,14" id="路径" node-id="91" stroke="none" target-height="66.547" target-width="91" target-x="475" target-y="180"></path><path d="M 566.00 154.00 L 566.00 169.00 L 565.00 169.57 L 565.00 169.79 L 475.00 220.55 L 475.00 205.55 L 534.00 172.27 L 534.00 172.13 Z" fill="#d5daf0" fill-rule="evenodd" group-id="1,2,5,14" id="路径" node-id="92" stroke="none" target-height="66.547" target-width="91" target-x="475" target-y="154"></path></g></g><g node-id="615"><g node-id="624"><path d="M 1341.00 493.80 L 1380.60 471.00 L 1380.60 499.80 L 1341.00 522.60 Z" fill="#777b8e" fill-rule="evenodd" filter="url(#filter-8)" group-id="1,2,6,15" id="矩形备份-23" node-id="95" stroke="none" target-height="51.599976" target-width="39.599976" target-x="1341" target-y="471"></path><path d="M 1390.20 411.00 L 1384.20 435.00 L 1354.88 545.33 L 1293.00 581.40 L 1290.60 580.20 L 1314.60 522.60 Z" fill="#f7a91a" fill-rule="evenodd" filter="url(#filter-8)" group-id="1,2,6,15" id="矩形" node-id="96" stroke="none" target-height="170.40002" target-width="99.599976" target-x="1290.6" target-y="411"></path><path d="M 1361.40 507.00 L 1364.58 508.81 L 1354.88 545.33 L 1322.61 564.13 L 1302.15 552.49 L 1308.58 537.06 Z" fill="#777b8e" fill-rule="evenodd" filter="url(#filter-8)" group-id="1,2,6,15" id="路径" node-id="97" stroke="none" target-height="57.13318" target-width="62.433594" target-x="1302.1464" target-y="507"></path><g node-id="649"><path d="M 1362.60 491.40 L 1338.37 556.52 L 1316.55 569.12 L 1346.78 502.80 Z" fill="#5f6377" fill-rule="evenodd" filter="url(#filter-8)" group-id="1,2,6,15,40" id="矩形备份-24" node-id="98" stroke="none" target-height="77.71695" target-width="46.05432" target-x="1316.5457" target-y="491.4"></path></g><path d="M 1390.20 411.00 L 1379.40 435.00 L 1292.47 581.33 L 1279.05 573.75 L 1252.20 558.60 Z" fill="#fed544" fill-rule="evenodd" filter="url(#filter-8)" group-id="1,2,6,15" id="矩形" node-id="99" stroke="none" target-height="170.32501" target-width="138" target-x="1252.2" target-y="411"></path><path d="M 1295.57 512.21 L 1323.94 528.35 L 1295.50 576.23 L 1289.50 579.65 L 1252.20 558.60 L 1295.57 512.21 Z" fill="#959ab2" fill-rule="evenodd" filter="url(#filter-8)" group-id="1,2,6,15" id="形状结合" node-id="100" stroke="none" target-height="67.435974" target-width="71.74402" target-x="1252.2" target-y="512.2092"></path><path d="M 1380.60 471.00 L 1513.80 546.60 L 1513.80 575.40 L 1380.60 499.80 Z" fill="#959ab2" fill-rule="evenodd" filter="url(#filter-8)" group-id="1,2,6,15" id="矩形备份-17" node-id="101" stroke="none" target-height="104.400024" target-width="133.19995" target-x="1380.6" target-y="471"></path><path d="M 1380.60 499.80 L 1513.80 575.40 L 1392.60 645.00 L 1259.40 569.40 L 1298.89 546.72 L 1309.20 552.60 L 1360.79 523.21 L 1364.56 509.01 L 1380.60 499.80 Z" fill="#b0b6d1" fill-rule="evenodd" filter="url(#filter-8)" group-id="1,2,6,15" id="形状结合" node-id="102" stroke="none" target-height="145.20001" target-width="254.40002" target-x="1259.3999" target-y="499.8"></path><path d="M 1259.40 540.60 L 1299.00 517.80 L 1299.00 546.60 L 1259.40 569.40 Z" fill="#777b8e" fill-rule="evenodd" filter="url(#filter-8)" group-id="1,2,6,15" id="矩形备份-16" node-id="103" stroke="none" target-height="51.600037" target-width="39.600098" target-x="1259.3999" target-y="517.8"></path></g><g node-id="625"><path d="M 1386.35 430.40 L 1530.60 611.40 L 1521.08 610.27 L 1385.15 435.20 L 1386.60 531.00 L 1386.60 525.00 Z" fill="#d5daf0" fill-rule="evenodd" filter="url(#filter-8)" group-id="1,2,6,16" id="矩形" node-id="105" stroke="none" target-height="181.0043" target-width="145.44836" target-x="1385.1516" target-y="430.39572"></path><path d="M 1386.35 435.20 L 1530.60 611.40 L 1533.08 604.27 L 1387.80 437.40 L 1386.35 430.40 Z" fill="#f8f9fd" fill-rule="evenodd" filter="url(#filter-8)" group-id="1,2,6,16" id="矩形" node-id="106" stroke="none" target-height="181.0043" target-width="146.72339" target-x="1386.3516" target-y="430.39572"></path><path d="M 1380.60 438.60 L 1384.06 528.00 L 1421.40 508.20 Z" fill="#d5daf0" fill-rule="evenodd" filter="url(#filter-8)" group-id="1,2,6,16" id="矩形备份-25" node-id="107" stroke="none" target-height="89.401825" target-width="40.80005" target-x="1380.6" target-y="438.6"></path><path d="M 1380.60 438.60 L 1384.06 528.00 L 1331.16 497.98 Z" fill="#f8f9fd" fill-rule="evenodd" filter="url(#filter-8)" group-id="1,2,6,16" id="矩形备份-25" node-id="108" stroke="none" target-height="89.401825" target-width="52.89966" target-x="1331.1608" target-y="438.6"></path><path d="M 1381.80 439.80 L 1391.40 690.60 L 1393.88 683.48 L 1383.25 442.00 L 1381.80 435.00 L 1379.40 439.80 L 1241.33 610.12 L 1249.80 610.20 Z" fill="#f8f9fd" fill-rule="evenodd" filter="url(#filter-8)" group-id="1,2,6,16" id="矩形" node-id="109" stroke="none" target-height="255.59998" target-width="152.55005" target-x="1241.325" target-y="435"></path><path d="M 1381.80 435.00 L 1391.40 690.60 L 1381.88 689.48 L 1379.40 439.80 L 1241.33 610.12 L 1239.00 604.20 Z" fill="#d5daf0" fill-rule="evenodd" filter="url(#filter-8)" group-id="1,2,6,16" id="矩形" node-id="110" stroke="none" target-height="255.59998" target-width="152.40002" target-x="1239" target-y="435"></path></g><g node-id="626"><path d="M 1474.20 569.40 L 1513.80 546.60 L 1513.80 575.40 L 1474.20 598.20 Z" fill="#777b8e" fill-rule="evenodd" filter="url(#filter-8)" group-id="1,2,6,17" id="矩形备份-18" node-id="112" stroke="none" target-height="51.600037" target-width="39.599976" target-x="1474.2001" target-y="546.6"></path><path d="M 1390.20 411.00 L 1529.40 643.80 L 1467.00 679.80 L 1384.20 435.00 Z" fill="#f7a91a" fill-rule="evenodd" filter="url(#filter-8)" group-id="1,2,6,17" id="矩形" node-id="113" stroke="none" target-height="268.80005" target-width="145.19995" target-x="1384.2001" target-y="411"></path><path d="M 1486.99 572.88 L 1529.40 643.80 L 1467.00 679.80 L 1439.90 599.67 L 1486.99 572.88 Z" fill="#777b8e" fill-rule="evenodd" filter="url(#filter-8)" group-id="1,2,6,17" id="形状结合" node-id="114" stroke="none" target-height="106.92023" target-width="89.50183" target-x="1439.8982" target-y="572.8798"></path><path d="M 1390.20 411.00 L 1467.00 679.80 L 1440.15 664.65 L 1426.73 657.08 L 1379.40 435.00 Z" fill="#fed544" fill-rule="evenodd" filter="url(#filter-8)" group-id="1,2,6,17" id="矩形" node-id="115" stroke="none" target-height="268.80005" target-width="87.599976" target-x="1379.4" target-y="411"></path><path d="M 1409.93 578.27 L 1443.44 597.33 L 1467.00 679.80 L 1426.73 657.08 L 1409.93 578.27 Z" fill="#959ab2" fill-rule="evenodd" filter="url(#filter-8)" group-id="1,2,6,17" id="形状结合" node-id="116" stroke="none" target-height="101.53223" target-width="57.06958" target-x="1409.9304" target-y="578.2678"></path><g node-id="650"><path d="M 1479.26 586.04 L 1483.61 595.99 L 1492.31 615.90 L 1509.71 655.71 L 1487.89 668.31 L 1470.49 628.50 L 1461.79 608.59 L 1457.44 598.64 Z" fill="#959ab2" fill-rule="evenodd" filter="url(#filter-8)" group-id="1,2,6,17,41" id="矩形" node-id="117" stroke="none" target-height="82.271545" target-width="52.273926" target-x="1457.438" target-y="586.0408"></path></g><g node-id="651"><path d="M 1479.26 586.04 L 1483.61 595.99 L 1492.31 615.90 L 1509.71 655.71 L 1461.79 608.59 L 1457.44 598.64 Z" fill="#5f6377" fill-rule="evenodd" filter="url(#filter-8)" group-id="1,2,6,17,42" id="矩形" node-id="118" stroke="none" target-height="69.67151" target-width="52.273804" target-x="1457.4381" target-y="586.04083"></path></g><path d="M 1392.60 616.20 L 1432.20 593.40 L 1432.20 622.20 L 1392.60 645.00 Z" fill="#777b8e" fill-rule="evenodd" filter="url(#filter-8)" group-id="1,2,6,17" id="矩形" node-id="119" stroke="none" target-height="51.599976" target-width="39.599976" target-x="1392.6001" target-y="593.4"></path><path d="M 1259.40 540.60 L 1392.60 616.20 L 1392.60 645.00 L 1259.40 569.40 Z" fill="#959ab2" fill-rule="evenodd" filter="url(#filter-8)" group-id="1,2,6,17" id="矩形" node-id="120" stroke="none" target-height="104.400024" target-width="133.20007" target-x="1259.4" target-y="540.6"></path></g><path d="M 1293.74 520.88 L 1298.59 523.63 L 1269.08 540.57 L 1392.59 610.67 L 1427.01 590.91 L 1431.85 593.66 L 1392.60 616.20 L 1259.40 540.60 L 1293.74 520.88 Z M 1452.47 511.79 L 1513.80 546.60 L 1482.21 564.74 L 1479.74 560.63 L 1504.12 546.62 L 1462.33 522.90 L 1462.20 522.60 L 1452.47 511.79 Z" fill="#cbd2f3" fill-rule="nonzero" filter="url(#filter-8)" group-id="1,2,6" id="形状结合" node-id="121" stroke="none" target-height="104.40741" target-width="254.40002" target-x="1259.4" target-y="511.7926"></path></g><g node-id="616"><g node-id="627"><path d="M 600.54 623.77 L 615.51 627.80 L 594.20 649.53 L 579.23 645.50 Z" fill="#ced4d6" fill-rule="evenodd" group-id="1,2,7,18" id="矩形备份-8" node-id="123" stroke="none" target-height="25.763977" target-width="36.2843" target-x="579.2262" target-y="623.77057"></path></g><g node-id="628"><path d="M 554.87 657.49 L 552.84 665.15 L 552.43 668.01 L 554.87 681.41 L 556.00 698.00 L 554.55 706.89 L 556.00 720.36 L 567.28 720.36 L 568.38 711.08 L 570.90 705.56 L 572.09 715.97 L 571.11 722.95 L 571.93 730.84 L 582.33 732.43 L 586.10 722.41 L 586.10 712.98 L 589.62 695.40 L 590.38 678.82 L 590.38 668.71 Z" fill="#473f5c" fill-rule="evenodd" group-id="1,2,7,19" id="路径-19" node-id="125" stroke="none" target-height="74.94476" target-width="37.954956" target-x="552.42804" target-y="657.4853"></path><path d="M 585.28 726.62 L 584.59 737.33 L 583.96 749.29 L 587.02 752.00 L 594.51 754.66 L 595.02 758.00 L 590.02 760.00 L 585.02 760.00 L 579.02 761.00 L 576.46 760.96 L 574.21 760.20 L 573.50 759.00 L 573.64 757.05 L 573.64 755.00 L 574.34 749.66 L 570.72 734.17 L 571.00 725.00 L 573.00 728.00 L 579.00 730.00 L 583.00 729.00 Z" fill="#231e31" fill-rule="evenodd" group-id="1,2,7,19" id="路径-7备份" node-id="126" stroke="none" target-height="36" target-width="24.299988" target-x="570.72266" target-y="725"></path><g node-id="652"><path d="M 596.85 760.28 L 595.97 761.58 L 594.51 762.60 L 592.30 763.34 L 589.93 763.66 L 587.06 763.68 L 583.61 763.31 L 580.21 762.64 L 576.55 761.62 L 572.62 760.20 L 568.80 758.48 L 565.45 756.68 L 562.55 754.80 L 559.81 752.66 L 557.75 750.66 L 556.27 748.79 L 555.19 746.72 L 554.86 744.97 L 555.13 743.42 L 556.01 742.13 L 557.46 741.10 L 559.68 740.36 L 562.05 740.04 L 564.91 740.03 L 568.37 740.39 L 571.77 741.06 L 575.42 742.09 L 579.36 743.51 L 583.18 745.22 L 586.52 747.02 L 589.43 748.90 L 592.17 751.04 L 594.22 753.04 L 595.70 754.92 L 596.78 756.99 L 597.11 758.74 L 596.85 760.28 Z" fill="#000000" fill-opacity="0.100438" fill-rule="evenodd" group-id="1,2,7,19,43" id="椭圆形" node-id="127" stroke="none" target-height="23.647522" target-width="42.251465" target-x="554.86127" target-y="740.0286"></path></g><path d="M 568.55 714.00 L 567.87 724.71 L 567.24 736.67 L 568.50 739.50 L 571.02 741.11 L 571.52 744.45 L 570.16 745.50 L 567.00 746.50 L 564.18 748.31 L 562.00 748.50 L 557.71 747.20 L 557.00 746.00 L 556.92 744.42 L 556.92 742.38 L 557.62 737.04 L 554.00 721.55 L 555.00 712.00 L 556.57 714.73 L 564.00 717.00 L 567.00 716.00 Z" fill="#231e31" fill-rule="evenodd" group-id="1,2,7,19" id="路径-7备份-3" node-id="128" stroke="none" target-height="36.5" target-width="17.525024" target-x="554" target-y="712"></path><path d="M 571.00 706.00 L 571.00 702.00 L 569.00 688.00 L 564.56 681.16 L 563.00 675.00 L 563.34 670.45" fill="none" group-id="1,2,7,19" id="路径-20" node-id="129" stroke="#736b88" stroke-linecap="butt" stroke-width="0.54432" target-height="35.548096" target-width="8" target-x="563" target-y="670.4519"></path></g><g node-id="629"><g node-id="653"><g node-id="668"><path d="M 550.00 611.00 L 556.00 606.00 L 559.00 606.00 L 568.16 607.69 L 573.86 609.68 L 575.00 613.00 L 585.00 619.00 L 588.00 624.00 L 588.97 628.12 L 595.19 642.99 L 598.00 646.51 L 598.00 651.62 L 596.97 655.21 L 596.13 656.55 L 594.98 657.54 L 593.44 658.20 L 592.23 658.37 L 591.13 658.16 L 590.07 657.57 L 589.01 656.51 L 589.34 668.71 L 555.00 660.00 L 558.00 651.00 L 550.00 620.12 L 550.00 611.00 Z" fill="#ff935f" fill-rule="evenodd" group-id="1,2,7,20,44,59" node-id="465" stroke="none" target-height="62.713196" target-width="48.00116" target-x="550" target-y="606"></path></g><g clip-path="url(#mask-10)" group-id="1,2,7,20,44,60" node-id="468"><path d="M 596.91 639.02 L 591.48 645.88 L 586.53 647.75 L 581.27 651.93 L 575.00 651.00 L 567.68 649.16 L 558.00 645.00 L 554.68 641.80 L 554.00 637.00 L 558.09 641.07 L 567.00 645.00 L 575.38 646.84 L 581.27 647.77 L 585.37 644.49 L 589.88 643.11 L 595.56 635.24 Z" fill="#e5ffa5" fill-rule="evenodd" group-id="1,2,7,20,44,60" id="路径-21" node-id="135" stroke="none" target-height="16.694763" target-width="42.913086" target-x="554" target-y="635.23883"></path></g></g><path d="M 595.19 642.99 L 598.00 646.51 L 598.00 651.62 L 596.97 655.21 L 596.13 656.55 L 594.98 657.54 L 593.44 658.20 L 592.23 658.37 L 591.13 658.16 L 590.07 657.57 L 589.01 656.51 L 590.34 668.71 L 587.00 672.00 L 579.00 672.00 L 570.00 670.00 L 556.00 662.00 L 554.19 660.52 L 557.00 651.00 L 555.00 639.00 L 558.00 647.00 L 572.00 652.00 L 579.61 653.18 L 576.11 634.34 L 580.94 629.71 L 587.92 648.18 L 592.38 646.51 L 595.19 642.99 Z" fill="#473f5c" fill-rule="evenodd" group-id="1,2,7,20" id="路径-18" node-id="136" stroke="none" target-height="42.294006" target-width="43.810547" target-x="554.1906" target-y="629.706"></path><path d="M 590.34 668.71 L 585.74 671.99 L 572.00 671.00 L 556.00 662.00 L 554.19 660.52" fill="none" group-id="1,2,7,20" id="路径" node-id="137" stroke="#736b88" stroke-linecap="butt" stroke-width="0.54432" target-height="11.466064" target-width="36.145447" target-x="554.1906" target-y="660.51965"></path></g><g node-id="630"><path d="M 578.22 590.71 L 578.73 594.72 L 578.79 598.05 L 578.48 600.81 L 577.80 603.52 L 576.96 605.54 L 576.00 607.00 L 575.43 607.47 L 574.60 607.81 L 572.69 608.16 L 572.69 612.04 L 559.10 610.72 L 559.83 605.63 L 560.02 602.54 L 559.85 601.17 L 559.38 599.64 L 558.18 596.23 L 557.72 594.26 L 557.53 591.89 L 557.74 590.26 L 558.31 588.67 L 559.26 587.09 L 560.48 585.70 L 561.92 584.53 L 563.60 583.58 L 565.41 582.95 L 567.29 582.72 L 569.28 582.89 L 572.12 583.72 L 574.17 584.72 L 575.62 585.86 L 576.79 587.30 L 577.65 588.91 L 578.22 590.71 Z" fill="#ffc59d" fill-rule="evenodd" group-id="1,2,7,21" id="路径-13" node-id="139" stroke="none" target-height="29.319275" target-width="21.25708" target-x="557.5298" target-y="582.7212"></path><path d="M 569.28 599.39 L 569.89 601.65 L 570.86 603.49 L 572.15 605.04 L 573.48 606.11 L 574.90 606.81 L 576.00 607.00 L 575.43 607.47 L 574.60 607.81 L 572.69 608.16 L 572.69 612.04 L 559.10 610.72 L 559.83 605.63 L 560.02 602.54 L 559.85 601.17 L 559.38 599.64 L 558.18 596.23 L 557.72 594.26 L 557.53 591.89 L 557.74 590.26 L 558.31 588.67 L 559.26 587.09 L 560.48 585.70 L 561.92 584.53 L 563.60 583.58 L 565.41 582.95 L 567.29 582.72 L 569.28 582.89 L 570.33 583.30 L 571.03 583.90 L 571.46 584.72 L 571.71 586.22 L 571.57 588.16 L 570.58 592.32 L 569.49 596.36 L 569.21 598.15 L 569.28 599.39 Z" fill="#f1a774" fill-rule="evenodd" group-id="1,2,7,21" id="路径-13" node-id="140" stroke="none" target-height="29.319275" target-width="18.470215" target-x="557.5298" target-y="582.7212"></path><path d="M 553.48 612.04 L 557.53 607.69 L 568.16 607.69 L 573.86 609.68 L 577.03 613.75 L 572.56 612.64 L 562.21 611.53 Z" fill="#473f5c" fill-rule="evenodd" group-id="1,2,7,21" id="路径-18" node-id="141" stroke="none" target-height="6.0594482" target-width="23.55365" target-x="553.4805" target-y="607.69257"></path><path d="M 578.79 591.62 L 578.90 593.05 L 578.51 594.80 L 577.80 596.52 L 576.97 597.96 L 576.06 599.11 L 575.57 599.39 L 575.27 599.23 L 575.11 598.80 L 574.87 597.90 L 574.62 597.74 L 574.00 598.00 L 573.15 598.81 L 572.80 599.52 L 571.88 600.63 L 571.13 601.51 L 570.33 602.86 L 569.01 605.95 L 568.16 608.89 L 567.18 612.42 L 566.54 614.82 L 565.89 617.93 L 565.45 621.30 L 565.26 625.36 L 565.08 628.53 L 564.57 631.79 L 563.78 634.98 L 562.78 637.88 L 561.56 640.55 L 560.30 642.59 L 558.84 644.18 L 557.53 644.90 L 556.21 645.04 L 555.08 644.81 L 554.09 644.22 L 553.18 643.19 L 552.25 641.54 L 551.34 639.28 L 550.49 636.29 L 549.86 633.31 L 549.52 630.27 L 549.45 627.16 L 549.69 624.05 L 550.28 620.75 L 551.23 617.25 L 552.60 613.94 L 554.20 611.16 L 557.35 606.33 L 558.42 604.11 L 558.81 602.04 L 558.65 600.57 L 558.28 599.47 L 557.28 597.25 L 556.91 595.93 L 556.73 593.96 L 556.88 591.70 L 557.53 588.20 L 558.29 586.01 L 559.33 584.44 L 560.62 583.35 L 562.23 582.68 L 564.25 582.44 L 566.82 582.72 L 570.09 583.69 L 574.24 585.53 L 576.61 587.98 L 578.05 589.98 L 578.79 591.62 Z" fill="#53443f" fill-rule="evenodd" group-id="1,2,7,21" id="路径-17" node-id="142" stroke="none" target-height="62.60211" target-width="29.448181" target-x="549.45447" target-y="582.4419"></path><path d="M 567.06 577.92 L 570.07 578.25 L 572.68 579.15 L 574.96 580.59 L 576.85 582.52 L 578.28 584.86 L 579.25 587.70 L 581.02 587.87 L 582.72 588.40 L 584.40 589.34 L 584.40 589.34 L 584.40 590.27 L 579.60 594.02 L 575.70 596.56 L 572.54 598.15 L 570.00 599.00 L 564.63 600.06 L 560.63 600.46 L 557.70 600.38 L 555.61 599.95 L 554.16 599.26 L 554.16 599.26 L 553.48 598.40 L 553.31 597.34 L 553.52 596.23 L 554.16 595.01 L 554.00 592.00 L 554.22 589.42 L 554.82 587.07 L 555.78 584.89 L 557.09 582.90 L 558.65 581.23 L 560.47 579.84 L 562.50 578.79 L 564.69 578.15 L 567.06 577.92 Z" fill="#ff7e27" fill-rule="evenodd" group-id="1,2,7,21" id="形状结合" node-id="143" stroke="none" target-height="22.548767" target-width="31.083435" target-x="553.3136" target-y="577.9157"></path></g></g><g node-id="617"><g node-id="631"><path d="M 756.00 531.75 L 782.00 546.49 L 782.00 665.27 L 756.00 650.52 Z" fill="#ededf7" fill-rule="evenodd" filter="url(#filter-11)" group-id="1,2,8,22" id="矩形" node-id="146" stroke="none" target-height="133.5224" target-width="26" target-x="756" target-y="531.7463"></path><g node-id="654"><path d="M 808.00 531.75 L 782.00 546.49 L 782.00 665.27 L 808.00 650.52 Z" fill="#d5daf0" fill-rule="evenodd" filter="url(#filter-11)" group-id="1,2,8,22,45" id="矩形备份-30" node-id="147" stroke="none" target-height="133.5224" target-width="26" target-x="782" target-y="531.7463"></path></g><path d="M 756.00 531.75 L 782.00 517.00 L 808.00 531.75 L 782.00 546.49 Z" fill="#f8f9fd" fill-rule="evenodd" filter="url(#filter-11)" group-id="1,2,8,22" id="矩形" node-id="148" stroke="none" target-height="29.492554" target-width="52" target-x="756" target-y="517"></path></g><g node-id="632"><path d="M 718.00 592.75 L 744.00 607.49 L 744.00 686.27 L 718.00 671.52 Z" fill="#fec11b" fill-rule="evenodd" filter="url(#filter-11)" group-id="1,2,8,23" id="矩形" node-id="150" stroke="none" target-height="93.5224" target-width="26" target-x="718" target-y="592.7463"></path><g node-id="655"><path d="M 770.00 592.75 L 744.00 607.49 L 744.00 686.27 L 770.00 671.52 Z" fill="#f7a91a" fill-rule="evenodd" filter="url(#filter-11)" group-id="1,2,8,23,46" id="矩形备份-30" node-id="151" stroke="none" target-height="93.5224" target-width="26" target-x="744" target-y="592.7463"></path></g><path d="M 718.00 592.75 L 744.00 578.00 L 770.00 592.75 L 744.00 607.49 Z" fill="#fed544" fill-rule="evenodd" filter="url(#filter-11)" group-id="1,2,8,23" id="矩形" node-id="152" stroke="none" target-height="29.492554" target-width="52" target-x="718" target-y="578"></path></g><g node-id="633"><path d="M 681.00 593.75 L 707.00 608.49 L 707.00 707.27 L 681.00 692.52 Z" fill="#ededf7" fill-rule="evenodd" filter="url(#filter-11)" group-id="1,2,8,24" id="矩形" node-id="154" stroke="none" target-height="113.5224" target-width="26" target-x="681" target-y="593.7463"></path><g node-id="656"><path d="M 733.00 593.75 L 707.00 608.49 L 707.00 707.27 L 733.00 692.52 Z" fill="#d5daf0" fill-rule="evenodd" filter="url(#filter-11)" group-id="1,2,8,24,47" id="矩形备份-30" node-id="155" stroke="none" target-height="113.5224" target-width="26" target-x="707" target-y="593.7463"></path></g><path d="M 681.00 593.75 L 707.00 579.00 L 733.00 593.75 L 707.00 608.49 Z" fill="#f8f9fd" fill-rule="evenodd" filter="url(#filter-11)" group-id="1,2,8,24" id="矩形" node-id="156" stroke="none" target-height="29.492554" target-width="52" target-x="681" target-y="579"></path></g><g node-id="634"><path d="M 642.00 674.75 L 668.00 689.49 L 668.00 728.27 L 642.00 713.52 Z" fill="#fec11b" fill-rule="evenodd" filter="url(#filter-11)" group-id="1,2,8,25" id="矩形" node-id="158" stroke="none" target-height="53.5224" target-width="26" target-x="642" target-y="674.7463"></path><g node-id="657"><path d="M 694.00 674.75 L 668.00 689.49 L 668.00 728.27 L 694.00 713.52 Z" fill="#f7a91a" fill-rule="evenodd" filter="url(#filter-11)" group-id="1,2,8,25,48" id="矩形备份-30" node-id="159" stroke="none" target-height="53.5224" target-width="26" target-x="668" target-y="674.7463"></path></g><path d="M 642.00 674.75 L 668.00 660.00 L 694.00 674.75 L 668.00 689.49 Z" fill="#fed544" fill-rule="evenodd" filter="url(#filter-11)" group-id="1,2,8,25" id="矩形" node-id="160" stroke="none" target-height="29.492554" target-width="52" target-x="642" target-y="660"></path></g></g><g node-id="618"><path d="M 341.00 659.00 L 521.00 557.00 L 528.00 561.00 L 348.00 777.00 L 341.00 773.00 Z" fill="#d5daf0" fill-rule="evenodd" filter="url(#filter-12)" group-id="1,2,9" id="矩形" node-id="162" stroke="none" target-height="220" target-width="187" target-x="341" target-y="557"></path><path d="M 348.00 663.00 L 528.00 561.00 L 528.00 675.00 L 348.00 777.00 Z" fill="#f8f9fd" fill-rule="evenodd" filter="url(#filter-12)" group-id="1,2,9" id="矩形" node-id="163" stroke="none" target-height="216" target-width="180" target-x="348" target-y="561"></path><g node-id="635"><path d="M 363.27 685.56 L 364.15 681.36 L 365.35 677.49 L 366.87 673.91 L 368.73 670.50 L 370.80 667.52 L 373.06 664.92 L 375.62 662.61 L 378.26 660.80 L 381.01 659.45 L 383.92 658.55 L 386.85 658.20 L 389.85 658.38 L 392.76 659.14 L 395.44 660.38 L 397.93 662.13 L 400.12 664.26 L 402.08 666.80 L 403.79 669.78 L 405.15 672.96 L 406.19 676.44 L 406.91 680.25 L 407.24 684.12 L 407.19 688.18 L 406.73 692.44 L 405.85 696.64 L 404.65 700.51 L 403.13 704.09 L 401.27 707.50 L 399.20 710.48 L 396.94 713.08 L 394.38 715.39 L 391.74 717.20 L 388.99 718.55 L 386.08 719.45 L 383.15 719.80 L 380.15 719.62 L 377.24 718.86 L 374.56 717.62 L 372.07 715.87 L 369.88 713.74 L 367.92 711.20 L 366.21 708.22 L 364.85 705.04 L 363.81 701.56 L 363.09 697.75 L 362.76 693.88 L 362.81 689.82 L 363.27 685.56 Z M 367.76 685.32 L 376.68 693.72 L 375.87 709.23 L 385.40 699.42 L 395.98 703.77 L 392.95 689.30 L 400.30 676.48 L 388.90 677.35 L 382.86 665.08 L 378.84 680.08 L 367.76 685.32 Z" fill="#f7a91a" fill-rule="evenodd" filter="url(#filter-12)" group-id="1,2,9,26" id="形状结合" node-id="164" stroke="none" target-height="61.60077" target-width="44.486603" target-x="362.7567" target-y="658.19965"></path></g><path d="M 473.00 677.91 L 473.00 689.91 L 424.00 717.55 L 424.00 705.55 L 473.00 677.91 Z" fill="#d5daf0" fill-rule="evenodd" filter="url(#filter-12)" group-id="1,2,9" id="形状结合" node-id="165" stroke="none" target-height="39.633972" target-width="49" target-x="424" target-y="677.913"></path><path d="M 406.00 720.51 L 405.83 722.36 L 405.36 724.07 L 404.60 725.69 L 403.56 727.16 L 402.30 728.41 L 400.77 729.46 L 370.23 746.69 L 368.89 747.12 L 367.56 747.01 L 366.37 746.42 L 365.45 745.36 L 365.11 744.52 L 365.00 743.63 L 365.17 741.79 L 365.64 740.07 L 366.40 738.45 L 367.44 736.99 L 368.70 735.74 L 370.23 734.69 L 400.77 717.46 L 402.11 717.03 L 403.44 717.14 L 404.63 717.73 L 405.55 718.79 L 405.89 719.62 L 406.00 720.51 Z" fill="#f7a91a" fill-rule="evenodd" filter="url(#filter-12)" group-id="1,2,9" id="路径" node-id="166" stroke="none" target-height="30.090393" target-width="41" target-x="365" target-y="717.0278"></path><path d="M 515.00 632.00 L 515.00 644.00 L 514.00 644.57 L 514.00 644.79 L 424.00 695.55 L 424.00 683.55 L 483.00 650.27 L 483.00 650.13 Z" fill="#d5daf0" fill-rule="evenodd" filter="url(#filter-12)" group-id="1,2,9" id="路径" node-id="167" stroke="none" target-height="63.546997" target-width="91" target-x="424" target-y="632"></path><path d="M 515.00 610.00 L 515.00 622.00 L 514.00 622.57 L 514.00 622.79 L 424.00 673.55 L 424.00 661.55 L 483.00 628.27 L 483.00 628.13 Z" fill="#fec11b" fill-rule="evenodd" filter="url(#filter-12)" group-id="1,2,9" id="路径" node-id="168" stroke="none" target-height="63.546997" target-width="91" target-x="424" target-y="610"></path><path d="M 515.00 587.00 L 515.00 599.00 L 514.00 599.57 L 514.00 599.79 L 424.00 650.55 L 424.00 638.55 L 483.00 605.27 L 483.00 605.13 Z" fill="#d5daf0" fill-rule="evenodd" filter="url(#filter-12)" group-id="1,2,9" id="路径" node-id="169" stroke="none" target-height="63.546997" target-width="91" target-x="424" target-y="587"></path></g><g node-id="619"><g node-id="636"><path d="M 1033.00 218.00 L 1033.00 308.00 L 1033.73 307.47 L 1034.70 307.13 L 1036.00 307.00 L 1036.88 307.29 L 1037.63 308.19 L 1038.11 309.44 L 1038.37 311.15 L 1038.34 312.98 L 1038.00 315.00 L 1037.21 316.95 L 1035.89 318.85 L 1034.23 320.51 L 1032.44 321.81 L 1030.56 322.71 L 1029.00 323.00 L 1027.71 322.76 L 1026.82 322.09 L 1026.23 320.92 L 1026.00 319.00" fill="none" group-id="1,2,10,27" id="路径-6" node-id="172" stroke="#777b8e" stroke-linecap="round" stroke-width="2" target-height="105" target-width="12.370361" target-x="1026" target-y="218"></path><g node-id="658"><path d="M 994.66 369.39 L 1062.55 330.92 L 1064.32 330.22 L 1066.12 330.01 L 1067.91 330.28 L 1069.57 330.99 L 1078.00 336.00 L 1074.59 336.10 L 1073.30 336.50 L 1073.00 337.01 L 1073.00 413.60 L 1072.83 416.35 L 1072.36 419.00 L 1071.58 421.56 L 1070.51 424.01 L 1069.17 426.30 L 1067.57 428.45 L 1065.72 430.39 L 1063.65 432.10 L 1061.34 433.61 L 996.00 477.00 L 986.46 472.03 L 985.04 470.93 L 983.91 469.44 L 983.23 467.77 L 983.00 465.99 L 983.00 389.40 L 983.17 386.65 L 983.64 384.00 L 984.42 381.44 L 985.49 378.99 L 986.83 376.70 L 988.43 374.55 L 990.28 372.61 L 992.35 370.90 L 994.66 369.39 Z" fill="#febc08" fill-rule="evenodd" group-id="1,2,10,27,49" id="矩形" node-id="174" stroke="none" target-height="146.98758" target-width="95" target-x="983" target-y="330.01242"></path><path d="M 1003.66 374.39 L 1071.55 335.92 L 1073.31 335.22 L 1075.09 335.01 L 1076.87 335.27 L 1078.52 335.96 L 1079.94 337.06 L 1081.09 338.56 L 1081.77 340.23 L 1082.00 342.01 L 1082.00 418.60 L 1081.83 421.35 L 1081.36 424.00 L 1080.58 426.56 L 1079.51 429.01 L 1078.17 431.30 L 1076.57 433.45 L 1074.72 435.39 L 1072.65 437.10 L 1070.34 438.61 L 1002.45 477.08 L 1000.69 477.78 L 998.91 477.99 L 997.13 477.73 L 995.48 477.04 L 994.06 475.94 L 992.91 474.44 L 992.23 472.77 L 992.00 470.99 L 992.00 394.40 L 992.17 391.65 L 992.64 389.00 L 993.42 386.44 L 994.49 383.99 L 995.83 381.70 L 997.43 379.55 L 999.28 377.61 L 1001.35 375.90 L 1003.66 374.39 Z" fill="#f7a91a" fill-rule="evenodd" group-id="1,2,10,27,49" id="矩形" node-id="175" stroke="none" target-height="142.9761" target-width="90" target-x="992" target-y="335.01193"></path><path d="M 1026.00 390.00 L 1045.00 420.00 L 1052.00 401.00 L 1070.00 425.00 L 1004.00 464.00 L 1026.00 390.00 Z M 1060.97 362.00 L 1063.39 362.32 L 1065.53 363.21 L 1067.36 364.59 L 1068.77 366.37 L 1069.67 368.47 L 1070.00 370.83 L 1070.00 370.83 L 1070.00 371.13 L 1069.81 374.25 L 1069.26 377.25 L 1068.35 380.16 L 1067.12 382.94 L 1065.57 385.54 L 1063.71 387.97 L 1061.58 390.18 L 1059.18 392.13 L 1056.50 393.84 L 1054.34 394.71 L 1052.03 395.00 L 1049.61 394.68 L 1047.47 393.79 L 1045.64 392.41 L 1044.23 390.63 L 1043.33 388.53 L 1043.00 386.17 L 1043.00 386.17 L 1043.00 385.87 L 1043.19 382.75 L 1043.74 379.75 L 1044.65 376.84 L 1045.88 374.06 L 1047.43 371.46 L 1049.29 369.03 L 1051.42 366.82 L 1053.82 364.87 L 1056.50 363.16 L 1058.66 362.29 L 1060.97 362.00 Z" fill="#f8f9fd" fill-rule="evenodd" group-id="1,2,10,27,49" id="形状结合" node-id="176" stroke="none" target-height="102" target-width="66" target-x="1004" target-y="362"></path></g><path d="M 990.00 381.00 L 1031.00 322.00 L 1074.00 333.00" fill="none" group-id="1,2,10,27" id="路径-7" node-id="177" stroke="#777b8e" stroke-linecap="round" stroke-width="1" target-height="59" target-width="84" target-x="990" target-y="322"></path></g><g node-id="637"><g node-id="659"><g node-id="670"><path d="M 1173.50 489.50 L 1173.50 489.50 L 1087.00 440.22 L 1087.00 429.40 L 1133.23 405.50 L 1213.77 405.50 L 1260.00 429.40 L 1260.00 440.22 L 1173.50 489.50 L 1173.50 489.50 L 1173.50 489.50 Z" fill="#000000" fill-rule="evenodd" filter="url(#filter-14)" group-id="1,2,10,28,50,61" node-id="545" stroke="none" target-height="84" target-width="173" target-x="1087" target-y="405.50253"></path></g><path d="M 1173.50 489.50 L 1173.50 489.50 L 1087.00 440.22 L 1087.00 429.40 L 1133.23 405.50 L 1213.77 405.50 L 1260.00 429.40 L 1260.00 440.22 L 1173.50 489.50 L 1173.50 489.50 L 1173.50 489.50 Z" fill="#d5daf0" fill-rule="evenodd" group-id="1,2,10,28,50,62" node-id="550" stroke="none" target-height="84" target-width="173" target-x="1087" target-y="405.50253"></path></g><path d="M 1086.00 429.00 L 1172.50 379.50 L 1259.00 429.00 L 1172.50 478.50 Z" fill="#f8f9fd" fill-rule="evenodd" group-id="1,2,10,28" id="矩形" node-id="182" stroke="none" target-height="99" target-width="173" target-x="1086" target-y="379.50253"></path><path d="M 1173.00 463.25 L 1173.00 463.25 L 1115.00 430.25 L 1115.00 404.25 L 1146.00 388.25 L 1200.00 388.25 L 1231.00 404.25 L 1231.00 430.25 L 1173.00 463.25 L 1173.00 463.25 L 1173.00 463.25 Z" fill="#d5daf0" fill-rule="evenodd" group-id="1,2,10,28" id="形状结合" node-id="183" stroke="none" target-height="75.00003" target-width="116" target-x="1115" target-y="388.25125"></path><path d="M 1115.00 404.00 L 1173.00 371.00 L 1231.00 404.00 L 1173.00 437.00 Z" fill="#f8f9fd" fill-rule="evenodd" group-id="1,2,10,28" id="矩形" node-id="184" stroke="none" target-height="66" target-width="116" target-x="1115" target-y="371"></path></g><g node-id="638"><path d="M 1200.01 384.89 L 1174.54 370.18 L 1174.32 387.38 L 1169.12 384.38 L 1169.33 368.34 L 1144.57 382.90 L 1139.37 379.90 L 1169.10 362.42 L 1169.40 362.60 L 1169.70 339.12 L 1145.45 353.39 L 1140.25 350.39 L 1169.78 333.02 L 1170.09 308.88 L 1145.46 323.37 L 1140.26 320.37 L 1169.98 302.89 L 1170.17 303.00 L 1170.46 279.66 L 1146.33 293.85 L 1141.13 290.85 L 1170.54 273.56 L 1170.85 249.42 L 1146.34 263.84 L 1141.14 260.84 L 1170.87 243.36 L 1170.93 243.39 L 1171.24 219.18 L 1146.35 233.82 L 1141.15 230.82 L 1170.88 213.34 L 1171.31 213.59 L 1171.63 188.95 L 1146.36 203.80 L 1141.16 200.80 L 1170.89 183.32 L 1171.69 183.79 L 1171.99 160.30 L 1146.74 175.15 L 1141.54 172.15 L 1171.26 154.67 L 1172.06 155.13 L 1172.55 116.44 L 1175.49 115.14 L 1177.75 117.44 L 1177.25 156.97 L 1204.67 172.81 L 1202.17 177.14 L 1177.17 162.71 L 1176.88 185.63 L 1204.30 201.46 L 1201.80 205.79 L 1176.81 191.36 L 1176.50 215.43 L 1204.29 231.47 L 1201.79 235.80 L 1176.43 221.17 L 1176.13 245.24 L 1204.28 261.49 L 1201.78 265.82 L 1176.05 250.97 L 1175.75 275.04 L 1204.27 291.51 L 1201.77 295.84 L 1175.67 280.77 L 1175.37 304.85 L 1203.39 321.02 L 1200.89 325.35 L 1175.30 310.58 L 1174.99 334.65 L 1203.38 351.04 L 1200.88 355.37 L 1174.92 340.38 L 1174.61 364.45 L 1202.51 380.56 L 1200.01 384.89 Z" fill="#d5daf0" fill-rule="evenodd" group-id="1,2,10,29" id="形状结合备份-3" node-id="186" stroke="none" target-height="272.24286" target-width="65.29675" target-x="1139.374" target-y="115.13561"></path><path d="M 1203.91 402.42 L 1198.91 405.42 L 1199.17 383.94 L 1174.49 398.46 L 1174.22 419.02 L 1171.91 420.42 L 1169.02 419.02 L 1169.29 398.57 L 1169.24 398.65 L 1144.91 384.60 L 1144.65 405.24 L 1139.45 402.24 L 1141.63 232.60 L 1141.57 232.57 L 1141.64 232.46 L 1142.02 202.80 L 1141.58 202.55 L 1142.03 201.78 L 1142.39 174.15 L 1141.96 173.90 L 1142.40 173.14 L 1142.88 135.30 L 1148.08 132.30 L 1147.59 171.38 L 1172.01 185.48 L 1172.45 151.09 L 1177.65 154.09 L 1177.26 184.30 L 1200.39 170.69 L 1201.72 171.45 L 1202.17 133.60 L 1207.37 136.60 L 1203.91 402.42 Z M 1171.65 214.13 L 1171.96 189.95 L 1171.40 190.90 L 1147.52 177.11 L 1147.23 200.04 L 1171.65 214.13 Z M 1171.27 243.94 L 1171.59 218.58 L 1171.03 219.55 L 1147.16 205.77 L 1146.85 229.84 L 1171.27 243.94 Z M 1170.88 273.74 L 1171.20 249.26 L 1171.02 249.57 L 1146.78 235.58 L 1146.48 259.65 L 1170.88 273.74 Z M 1201.38 200.12 L 1201.67 176.00 L 1177.18 190.40 L 1176.89 212.94 L 1200.02 199.34 L 1201.38 200.12 Z M 1170.50 303.54 L 1170.81 279.47 L 1146.41 265.38 L 1146.11 289.46 L 1170.50 303.54 Z M 1201.02 229.94 L 1201.32 204.63 L 1176.81 219.05 L 1176.50 243.18 L 1200.01 229.36 L 1201.02 229.94 Z M 1170.12 333.34 L 1170.43 309.27 L 1146.03 295.19 L 1145.73 319.26 L 1170.12 333.34 Z M 1200.66 259.75 L 1200.96 234.85 L 1176.42 249.29 L 1176.11 273.43 L 1200.00 259.37 L 1200.66 259.75 Z M 1169.74 363.14 L 1170.05 339.07 L 1145.66 324.99 L 1145.36 349.07 L 1169.74 363.14 Z M 1200.30 289.57 L 1200.60 265.08 L 1176.03 279.53 L 1175.71 303.67 L 1199.99 289.39 L 1200.30 289.57 Z M 1169.36 392.95 L 1169.67 368.88 L 1145.29 354.80 L 1144.98 378.87 L 1169.36 392.95 Z M 1199.94 319.38 L 1200.23 295.30 L 1175.63 309.77 L 1175.34 332.89 L 1199.11 318.91 L 1199.94 319.38 Z M 1199.59 349.20 L 1199.88 324.51 L 1175.26 338.99 L 1174.94 363.13 L 1199.10 348.92 L 1199.59 349.20 Z M 1199.23 379.02 L 1199.52 354.73 L 1174.86 369.23 L 1174.57 392.36 L 1198.23 378.44 L 1199.23 379.02 Z" fill="#ededf7" fill-rule="evenodd" group-id="1,2,10,29" id="形状结合备份-4" node-id="187" stroke="none" target-height="288.12143" target-width="67.91675" target-x="1139.4541" target-y="132.30069"></path></g><g node-id="639"><path d="M 1274.00 50.00 L 1318.00 25.00 L 1318.00 118.00 L 1274.00 143.00 Z" fill="#d5daf0" fill-rule="evenodd" group-id="1,2,10,30" id="矩形" node-id="189" stroke="none" target-height="118" target-width="44" target-x="1274" target-y="25"></path><path d="M 1274.00 50.00 L 1230.00 25.00 L 1230.00 118.00 L 1274.00 143.00 Z" fill="#dee1f1" fill-rule="evenodd" group-id="1,2,10,30" id="矩形" node-id="190" stroke="none" target-height="118" target-width="44" target-x="1230" target-y="25"></path><path d="M 1274.00 50.00 L 1230.00 25.00 L 1274.00 0.00 L 1318.00 25.00 Z" fill="#eff1f9" fill-rule="evenodd" group-id="1,2,10,30" id="矩形" node-id="191" stroke="none" target-height="50" target-width="88" target-x="1230" target-y="0"></path></g><g node-id="640"><path d="M 1154.00 161.00 L 1146.00 213.00 L 1113.00 205.00 L 1113.00 190.18 L 1118.00 182.00 L 1118.00 163.19 L 1136.00 158.00 Z" fill="#febc08" fill-rule="evenodd" group-id="1,2,10,31" id="路径" node-id="193" stroke="none" target-height="55" target-width="41" target-x="1113" target-y="158"></path><path d="M 1156.00 162.00 L 1148.00 214.00 L 1115.00 206.00 L 1115.00 191.18 L 1120.00 183.00 L 1120.00 164.19 L 1138.00 159.00 Z" fill="#d5daf0" fill-rule="evenodd" group-id="1,2,10,31" id="路径" node-id="194" stroke="none" target-height="55" target-width="41" target-x="1115" target-y="159"></path><path d="M 1145.00 148.00 L 1173.00 164.00 L 1147.00 180.00 L 1118.00 163.19 Z" fill="#fed544" fill-rule="evenodd" group-id="1,2,10,31" id="路径" node-id="195" stroke="none" target-height="32" target-width="55" target-x="1118" target-y="148"></path><path d="M 1113.00 191.00 L 1141.00 207.00 L 1141.00 221.00 L 1113.00 205.00 Z" fill="#fec11b" fill-rule="evenodd" group-id="1,2,10,31" id="路径备份" node-id="196" stroke="none" target-height="30" target-width="28" target-x="1113" target-y="191"></path><path d="M 1173.00 164.00 L 1173.00 203.00 L 1141.00 221.00 L 1141.00 206.18 L 1146.00 198.00 L 1146.00 179.19 Z" fill="#f7a91a" fill-rule="evenodd" group-id="1,2,10,31" id="路径" node-id="197" stroke="none" target-height="57" target-width="32" target-x="1141" target-y="164"></path><path d="M 1170.00 169.00 L 1170.00 184.69 L 1150.00 195.94 L 1150.00 179.94 L 1169.44 169.00 L 1170.00 169.00 Z" fill="#d5daf0" fill-rule="evenodd" group-id="1,2,10,31" id="形状结合" node-id="198" stroke="none" target-height="26.938004" target-width="20" target-x="1150" target-y="169"></path></g><g node-id="641"><path d="M 1225.00 57.00 L 1225.00 86.49 L 1240.00 78.00 L 1240.00 84.00 L 1226.08 91.88 L 1251.00 106.00 L 1251.00 112.00 L 1221.00 95.00 L 1221.00 94.76 L 1200.72 106.24 L 1225.00 120.00 L 1225.00 126.00 L 1195.42 109.24 L 1174.47 121.10 L 1199.00 135.00 L 1199.00 141.00 L 1169.18 124.10 L 1149.11 135.46 L 1173.00 149.00 L 1173.00 155.00 L 1143.81 138.46 L 1122.86 150.32 L 1147.00 164.00 L 1147.00 170.00 L 1117.57 153.32 L 1096.62 165.18 L 1121.00 179.00 L 1121.00 185.00 L 1091.32 168.18 L 1070.37 180.04 L 1095.00 194.00 L 1095.00 200.00 L 1065.08 183.04 L 1045.51 194.12 L 1070.00 208.00 L 1070.00 214.00 L 1040.21 197.12 L 1020.64 208.20 L 1045.00 222.00 L 1045.00 228.00 L 1015.35 211.20 L 993.90 223.34 L 1018.00 237.00 L 1018.00 243.00 L 988.60 226.34 L 969.04 237.42 L 993.00 251.00 L 993.00 257.00 L 963.74 240.42 L 942.79 252.28 L 967.00 266.00 L 967.00 272.00 L 937.49 255.28 L 916.04 267.42 L 940.00 281.00 L 940.00 287.00 L 910.75 270.42 L 885.00 285.00 L 885.00 279.00 L 909.00 265.41 L 909.00 232.00 L 914.00 232.00 L 914.00 262.58 L 936.00 250.12 L 936.00 217.00 L 941.00 217.00 L 941.00 247.29 L 962.00 235.40 L 962.00 202.00 L 967.00 202.00 L 967.00 232.57 L 987.00 221.25 L 987.00 188.00 L 992.00 188.00 L 992.00 218.42 L 1014.00 205.96 L 1014.00 173.00 L 1019.00 173.00 L 1019.00 203.13 L 1039.00 191.81 L 1039.00 159.00 L 1044.00 159.00 L 1044.00 188.97 L 1064.00 177.65 L 1064.00 145.00 L 1069.00 145.00 L 1069.00 174.82 L 1090.00 162.93 L 1090.00 130.00 L 1095.00 130.00 L 1095.00 160.10 L 1116.00 148.21 L 1116.00 115.00 L 1121.00 115.00 L 1121.00 145.38 L 1142.00 133.49 L 1142.00 100.00 L 1147.00 100.00 L 1147.00 130.66 L 1168.00 118.77 L 1168.00 86.00 L 1173.00 86.00 L 1173.00 115.94 L 1194.00 104.05 L 1194.00 71.00 L 1199.00 71.00 L 1199.00 101.21 L 1220.00 89.32 L 1220.00 57.00 L 1225.00 57.00 Z" fill="#d5daf0" fill-rule="evenodd" group-id="1,2,10,32" id="形状结合" node-id="200" stroke="none" target-height="230" target-width="366" target-x="885" target-y="57"></path><path d="M 1234.56 46.67 L 1239.81 49.70 L 1224.34 58.46 L 1249.04 72.46 L 1264.28 63.83 L 1269.53 66.86 L 1251.61 77.00 L 1252.00 77.00 L 1252.00 105.19 L 1270.00 95.00 L 1270.00 101.00 L 917.10 300.81 L 917.00 301.00 L 916.94 300.90 L 915.00 302.00 L 885.00 285.00 L 885.00 278.00 L 909.00 231.00 L 1142.00 99.08 L 1142.00 99.00 L 1142.07 99.04 L 1234.56 46.67 Z M 910.55 237.88 L 888.53 281.00 L 915.00 296.00 L 915.00 295.00 L 936.00 253.88 L 936.00 252.30 L 910.55 237.88 Z M 936.00 263.79 L 921.40 292.37 L 936.00 284.11 L 936.00 263.79 Z M 963.00 240.41 L 941.00 252.87 L 941.00 281.28 L 963.00 268.82 L 963.00 240.41 Z M 989.00 225.69 L 968.00 237.58 L 968.00 265.99 L 989.00 254.10 L 989.00 225.69 Z M 1014.00 211.53 L 994.00 222.86 L 994.00 251.27 L 1014.00 239.95 L 1014.00 211.53 Z M 936.00 221.71 L 914.30 234.00 L 939.00 248.00 L 960.45 235.85 L 936.00 222.00 L 936.00 221.71 Z M 1041.00 196.25 L 1019.00 208.70 L 1019.00 237.12 L 1041.00 224.66 L 1041.00 196.25 Z M 962.00 206.99 L 941.04 218.86 L 965.75 232.86 L 986.70 220.99 L 962.00 207.00 L 962.00 206.99 Z M 1066.00 182.09 L 1046.00 193.42 L 1046.00 221.83 L 1066.00 210.50 L 1066.00 182.09 Z M 987.00 192.84 L 967.29 204.00 L 991.99 218.00 L 1011.56 206.92 L 987.00 193.00 L 987.00 192.84 Z M 1091.00 167.94 L 1071.00 179.26 L 1071.00 207.67 L 1091.00 196.35 L 1091.00 167.94 Z M 1014.00 177.55 L 992.15 189.92 L 1016.86 203.92 L 1038.31 191.77 L 1014.00 178.00 L 1014.00 177.55 Z M 1117.00 153.22 L 1096.00 165.11 L 1096.00 193.52 L 1117.00 181.63 L 1117.00 153.22 Z M 1039.00 163.39 L 1018.90 174.78 L 1043.60 188.77 L 1063.17 177.70 L 1039.00 164.00 L 1039.00 163.39 Z M 1143.00 138.50 L 1122.00 150.39 L 1122.00 178.80 L 1143.00 166.91 L 1143.00 138.50 Z M 1064.00 149.24 L 1043.76 160.70 L 1068.46 174.70 L 1088.03 163.62 L 1064.00 150.00 L 1064.00 149.24 Z M 1169.00 123.77 L 1148.00 135.67 L 1148.00 164.08 L 1169.00 152.19 L 1169.00 123.77 Z M 1090.00 134.52 L 1068.62 146.62 L 1093.33 160.62 L 1114.28 148.76 L 1090.00 135.00 L 1090.00 134.52 Z M 1195.00 109.05 L 1174.00 120.94 L 1174.00 149.36 L 1195.00 137.47 L 1195.00 109.05 Z M 1116.00 119.80 L 1094.87 131.76 L 1119.57 145.76 L 1140.52 133.90 L 1116.00 120.00 L 1116.00 119.80 Z M 1221.00 94.33 L 1200.00 106.22 L 1200.00 134.63 L 1221.00 122.74 L 1221.00 94.33 Z M 1142.07 105.04 L 1121.12 116.90 L 1145.82 130.90 L 1166.77 119.04 L 1142.07 105.04 Z M 1247.00 79.61 L 1226.00 91.50 L 1226.00 119.91 L 1247.00 108.02 L 1247.00 79.61 Z M 1168.00 90.35 L 1147.36 102.04 L 1172.00 116.00 L 1172.00 116.08 L 1192.13 104.68 L 1168.00 91.00 L 1168.00 90.35 Z M 1194.00 75.63 L 1172.73 87.68 L 1197.43 101.68 L 1218.38 89.82 L 1194.00 76.00 L 1194.00 75.63 Z M 1220.00 60.91 L 1198.97 72.82 L 1223.68 86.82 L 1243.74 75.45 L 1220.00 62.00 L 1220.00 60.91 Z" fill="#ededf7" fill-rule="evenodd" group-id="1,2,10,32" id="形状" node-id="201" stroke="none" target-height="255.33182" target-width="385" target-x="885" target-y="46.668175"></path></g></g><g node-id="620"><g node-id="642"><path d="M 668.00 784.00 L 667.68 784.94 L 666.65 785.93 L 664.52 787.03 L 660.81 788.18 L 655.37 789.18 L 649.45 789.77 L 642.50 790.00 L 635.55 789.77 L 629.63 789.18 L 624.19 788.18 L 620.48 787.03 L 618.35 785.93 L 617.32 784.94 L 617.00 784.00 L 617.32 783.06 L 618.35 782.07 L 620.48 780.97 L 624.19 779.82 L 629.63 778.82 L 635.55 778.23 L 642.50 778.00 L 649.45 778.23 L 655.37 778.82 L 660.81 779.82 L 664.52 780.97 L 666.65 782.07 L 667.68 783.06 L 668.00 784.00 Z" fill="#000000" fill-opacity="0.100438" fill-rule="evenodd" group-id="1,2,11,33" id="椭圆形" node-id="204" stroke="none" target-height="12" target-width="51" target-x="617" target-y="778"></path><g node-id="660"><path d="M 658.85 686.12 L 661.89 696.36 L 662.74 706.57 L 662.80 726.32 L 661.15 735.70 L 660.62 739.76 L 660.77 746.60 L 659.56 750.57 L 648.24 749.73 L 647.04 746.73 L 647.04 742.86 L 645.88 739.26 L 643.93 724.28 L 641.79 717.82 L 639.95 729.80 L 638.25 738.03 L 639.30 746.73 L 637.46 751.89 L 633.53 757.17 L 625.51 747.97 L 624.59 743.33 L 625.07 737.26 L 622.34 726.38 L 620.50 713.52 L 619.00 696.00 L 622.21 685.05 L 628.18 679.89 Z" fill="#473f5c" fill-rule="evenodd" group-id="1,2,11,33,51" id="路径-26" node-id="205" stroke="none" target-height="77.2749" target-width="43.795166" target-x="619" target-y="679.8922"></path></g><path d="M 639.29 746.70 L 639.36 757.99 L 637.96 776.13 L 639.03 780.45 L 639.48 785.40 L 639.03 788.15 L 628.92 788.15 L 627.61 787.68 L 627.00 786.77 L 624.34 783.76 L 624.34 780.99 L 626.52 779.40 L 628.22 776.26 L 624.55 754.66 L 624.83 746.70 L 626.52 748.88 L 629.79 751.06 L 634.15 751.06 L 638.51 748.88 Z" fill="#231e31" fill-rule="evenodd" group-id="1,2,11,33" id="路径-7备份-3" node-id="206" stroke="none" target-height="41.4469" target-width="15.139221" target-x="624.34" target-y="746.69995"></path><path d="M 647.12 746.70 L 647.18 757.99 L 648.45 776.13 L 647.37 780.45 L 646.93 785.40 L 647.88 788.15 L 657.04 788.12 L 658.58 787.06 L 659.22 785.94 L 661.40 784.85 L 663.58 783.26 L 663.58 780.49 L 660.31 778.31 L 658.13 775.04 L 661.86 754.66 L 661.58 746.70 L 660.31 748.88 L 657.04 749.97 L 652.68 749.97 L 649.41 748.88 Z" fill="#231e31" fill-rule="evenodd" group-id="1,2,11,33,52" id="路径-7备份-4" node-id="207" stroke="none" target-height="41.4469" target-width="16.652039" target-x="646.9279" target-y="746.69995"></path><path d="M 641.79 717.82 L 640.16 711.94 L 638.53 707.61 L 638.53 702.62" fill="none" group-id="1,2,11,33" id="路径-27" node-id="208" stroke="#736b88" stroke-linecap="butt" stroke-width="0.545" target-height="15.203003" target-width="3.2636108" target-x="638.5256" target-y="702.6212"></path></g><g node-id="643"><path d="M 618.75 684.98 L 619.93 685.67 L 621.56 688.24 L 626.82 683.95 L 623.88 680.94 L 619.52 679.70 Z" fill="#ffc59d" fill-rule="evenodd" group-id="1,2,11,34" id="路径-30" node-id="210" stroke="none" target-height="8.540588" target-width="8.067261" target-x="618.7512" target-y="679.70386"></path><g node-id="662"><path d="M 652.03 626.31 L 648.37 625.32 L 645.55 623.19 L 644.41 620.30 L 643.43 619.63 L 643.43 618.84 L 644.65 618.59 L 646.07 619.07 L 645.75 618.21 L 645.00 617.41 L 642.57 617.99 L 641.21 617.66 L 641.21 616.69 L 644.41 615.72 L 644.81 614.77 L 646.07 614.46 L 648.02 615.72 L 650.90 615.99 L 652.03 616.49 L 654.36 620.30 L 655.13 621.77 L 657.73 624.17 L 653.45 627.38 Z" fill="#ffc59d" fill-rule="evenodd" group-id="1,2,11,34,53" id="路径-31" node-id="212" stroke="none" target-height="12.9140625" target-width="16.527893" target-x="641.2067" target-y="614.4624"></path><path d="M 644.41 615.72 L 645.35 615.40 L 646.10 615.40 L 648.13 617.41" fill="none" group-id="1,2,11,34,53" id="路径-32" node-id="213" stroke="#f1a774" stroke-linecap="round" stroke-width="0.545" target-height="2.0089722" target-width="3.723877" target-x="644.41064" target-y="615.4009"></path><path d="M 645.68 618.97 L 646.40 619.48 L 647.07 620.52 L 647.30 621.52 L 647.63 622.02" fill="none" group-id="1,2,11,34,53" id="路径-33" node-id="214" stroke="#f1a774" stroke-linecap="round" stroke-width="0.545" target-height="3.0513306" target-width="1.9458008" target-x="645.6798" target-y="618.9692"></path></g><g node-id="663"><g node-id="672"><path d="M 624.34 636.61 L 625.07 634.27 L 629.70 632.24 L 638.12 631.44 L 641.05 633.48 L 641.91 635.33 L 651.59 635.52 L 654.86 636.61 L 661.21 635.84 L 654.37 628.61 L 651.78 625.38 L 653.11 622.68 L 656.91 619.95 L 662.20 623.49 L 667.99 626.79 L 674.94 632.09 L 677.13 637.66 L 676.30 640.77 L 671.74 647.28 L 660.21 654.90 L 656.83 677.79 L 659.42 685.80 L 661.03 690.25 L 653.00 696.43 L 624.69 698.26 L 619.52 693.08 L 621.17 687.01 L 624.26 680.11 L 616.24 666.82 L 612.43 671.67 L 613.41 673.86 L 619.90 679.25 L 620.15 682.77 L 618.92 685.80 L 615.62 685.66 L 601.70 679.25 L 596.69 674.23 L 596.00 668.91 L 599.62 661.75 L 605.09 651.25 L 607.44 644.64 L 614.50 639.44 Z" fill="#ff935f" fill-rule="evenodd" group-id="1,2,11,34,54,63" node-id="603" stroke="none" target-height="78.315735" target-width="81.13141" target-x="596" target-y="619.945"></path></g><g clip-path="url(#mask-16)" group-id="1,2,11,34,54,64" node-id="606"><path d="M 663.83 634.42 L 668.92 636.66 L 670.33 645.17 L 655.36 665.93 L 650.33 668.75 L 627.62 672.98 L 623.24 671.87 L 621.55 672.81 L 613.35 665.39 L 611.49 664.24 L 603.84 662.86 L 599.18 660.13 L 600.49 657.72 L 605.39 660.92 L 615.73 662.86 L 623.25 669.39 L 627.03 670.62 L 650.33 666.36 L 655.36 663.55 L 667.04 644.82 L 667.82 643.76 L 667.04 638.22 L 660.61 634.99 Z" fill="#e5ffa5" fill-rule="evenodd" group-id="1,2,11,34,54,64" node-id="608" stroke="none" target-height="38.555298" target-width="71.15924" target-x="599.17523" target-y="634.4206"></path></g></g><path d="M 661.21 635.84 L 654.37 628.61 L 651.78 625.38 L 653.11 622.68 L 656.91 619.95 L 662.20 623.49 L 667.99 626.79 L 674.94 632.09 L 677.13 637.66 L 676.30 640.77 L 671.74 647.28 L 660.21 654.90 L 657.92 677.79 L 659.42 685.80 L 661.03 690.25 L 653.13 697.19 L 624.69 698.26 L 619.52 693.08 L 621.17 687.01 L 624.26 680.11 L 616.24 666.82 L 612.43 671.67 L 613.41 673.86 L 619.90 679.25 L 620.15 682.77 L 618.92 685.80 L 615.62 685.66 L 601.70 679.25 L 596.69 674.23 L 596.00 668.91 L 599.62 661.75 L 602.99 663.79 L 609.34 665.21 L 616.24 658.56 L 621.17 665.21 L 625.07 673.86 L 628.46 674.49 L 649.91 670.46 L 653.49 668.51 L 655.73 647.11 L 665.18 644.64 L 670.94 641.11 L 670.25 635.84 L 666.45 634.24 Z" fill="#473f5c" fill-rule="evenodd" group-id="1,2,11,34" id="路径-25" node-id="220" stroke="none" target-height="78.315796" target-width="81.13141" target-x="596" target-y="619.945"></path><path d="M 619.93 679.70 L 621.68 679.70 L 623.52 679.53 L 625.95 678.80 L 628.89 678.80 L 628.56 680.11 L 626.55 680.57 L 624.40 682.07 L 622.98 683.50 L 620.85 683.95 L 619.98 680.93 Z" fill="#ffc59d" fill-rule="evenodd" group-id="1,2,11,34" id="路径-29" node-id="221" stroke="none" target-height="5.152832" target-width="8.95282" target-x="619.93243" target-y="678.7972"></path><path d="M 661.03 690.25 L 653.13 697.19 L 638.51 699.83 L 624.69 698.26 L 619.52 693.08" fill="none" group-id="1,2,11,34" id="路径" node-id="222" stroke="#736b88" stroke-linecap="butt" stroke-width="0.545" target-height="9.583374" target-width="41.51184" target-x="619.5182" target-y="690.2466"></path></g><g node-id="644"><path d="M 625.07 618.88 L 625.07 622.48 L 624.64 622.16 L 624.32 622.48 L 624.36 623.82 L 624.81 625.78 L 625.34 627.14 L 626.01 628.12 L 626.36 628.48 L 626.70 628.60 L 626.98 629.68 L 627.33 630.47 L 627.33 634.79 L 633.77 633.96 L 637.51 633.85 L 639.46 634.14 L 640.34 634.62 L 640.34 632.86 L 641.40 631.64 L 642.11 630.41 L 642.51 629.14 L 642.76 627.25 L 643.03 626.52 L 643.30 625.74 L 643.56 624.35 L 643.80 622.75 L 643.80 621.86 L 643.70 621.56 L 643.44 621.44 L 643.70 619.58 L 643.80 618.15 L 643.49 617.02 L 642.40 615.67 L 640.11 614.00 L 636.02 611.92 L 631.04 613.81 L 627.94 615.40 L 626.17 616.74 L 625.32 617.88 L 625.07 618.88 Z" fill="#ffc59d" fill-rule="evenodd" group-id="1,2,11,35" id="路径-23" node-id="224" stroke="none" target-height="22.873352" target-width="19.486755" target-x="624.318" target-y="611.92126"></path><path d="M 626.70 626.51 L 626.79 627.34 L 626.58 628.21 L 626.57 628.51 L 626.70 628.60 L 626.98 629.68 L 627.33 630.47 L 627.33 634.79 L 631.36 634.22 L 634.82 634.03 L 637.79 634.18 L 640.34 634.62 L 640.34 632.86 L 641.85 630.93 L 641.64 630.31 L 641.65 629.36 L 641.85 627.14 L 641.80 626.94 L 641.58 627.42 L 640.85 629.53 L 639.77 631.88 L 639.08 632.68 L 638.46 632.86 L 635.90 632.50 L 633.88 632.42 L 632.03 632.71 L 630.39 633.44 L 629.74 633.49 L 629.01 632.81 L 628.39 631.74 L 627.79 630.32 L 626.95 627.65 L 626.70 626.51 Z" fill="#f1a774" fill-rule="evenodd" group-id="1,2,11,35" id="路径-23" node-id="225" stroke="none" target-height="8.284485" target-width="15.282349" target-x="626.56647" target-y="626.51013"></path><path d="M 643.30 620.08 L 641.52 622.08 L 640.47 623.28 L 640.14 623.96 L 639.81 625.14 L 639.05 627.66 L 638.04 629.59 L 634.46 630.56 L 632.66 630.79 L 631.40 630.69 L 630.07 630.37 L 628.93 629.79 L 628.39 629.04 L 627.41 626.78 L 625.99 624.17 L 625.33 622.28 L 625.07 619.42 L 627.76 613.30 L 635.78 611.92 L 643.30 618.15 L 643.30 620.08 Z" fill="#53443f" fill-rule="evenodd" group-id="1,2,11,35" id="路径-24" node-id="226" stroke="none" target-height="18.864624" target-width="18.223328" target-x="625.0738" target-y="611.92126"></path><path d="M 634.15 605.15 L 636.67 605.47 L 638.90 606.32 L 640.89 607.71 L 642.52 609.53 L 643.76 611.71 L 644.60 614.32 L 645.42 615.27 L 645.90 616.12 L 646.45 617.55 L 646.46 618.04 L 646.44 618.45 L 645.81 620.73 L 645.20 622.06 L 644.17 623.49 L 642.76 624.71 L 640.59 625.82 L 637.98 626.50 L 634.15 626.80 L 630.33 626.58 L 627.79 626.09 L 625.67 625.25 L 624.34 624.33 L 623.36 623.21 L 622.75 622.11 L 621.96 620.02 L 621.96 619.38 L 622.33 617.96 L 623.07 616.19 L 623.40 614.09 L 624.01 612.21 L 624.89 610.50 L 626.02 608.95 L 627.34 607.66 L 628.84 606.60 L 630.50 605.81 L 632.26 605.32 L 634.15 605.15 Z" fill="#ff7e27" fill-rule="evenodd" group-id="1,2,11,35" id="形状结合" node-id="227" stroke="none" target-height="21.652222" target-width="24.493896" target-x="621.9646" target-y="605.14795"></path><path d="M 624.34 636.61 L 625.07 634.27 L 629.70 632.24 L 638.12 631.44 L 641.05 633.48 L 642.87 635.52 L 638.51 635.52 L 626.61 636.42 Z" fill="#473f5c" fill-rule="evenodd" group-id="1,2,11,35" id="蒙版" node-id="228" stroke="none" target-height="5.1714478" target-width="18.53003" target-x="624.33997" target-y="631.43854"></path></g></g></g></g></svg>